<?xml version="1.0" encoding="UTF-8" standalone="no"?>
<!DOCTYPE svg PUBLIC "-//W3C//DTD SVG 1.1//EN"
 "http://www.w3.org/Graphics/SVG/1.1/DTD/svg11.dtd">
<!-- Generated by graphviz version 2.43.0 (0)
 -->
<!-- Title: DW Pages: 1 -->
<svg width="1893pt" height="1021pt"
 viewBox="0.00 0.00 1892.50 1021.00" xmlns="http://www.w3.org/2000/svg" xmlns:xlink="http://www.w3.org/1999/xlink">
<g id="graph0" class="graph" transform="scale(1 1) rotate(0) translate(4 1017)">
<title>DW</title>
<polygon fill="white" stroke="transparent" points="-4,4 -4,-1017 1888.5,-1017 1888.5,4 -4,4"/>
<!-- DIM_CLIENT -->
<g id="node1" class="node">
<title>DIM_CLIENT</title>
<polygon fill="#9cefc4" stroke="transparent" points="9.5,-979 9.5,-1008 266.5,-1008 266.5,-979 9.5,-979"/>
<polygon fill="none" stroke="black" points="9.5,-979 9.5,-1008 266.5,-1008 266.5,-979 9.5,-979"/>
<text text-anchor="start" x="91" y="-990.8" font-family="Helvetica,sans-Serif" font-weight="bold" font-size="14.00">DIM_CLIENT</text>
<polygon fill="#ffffff" stroke="transparent" points="9.5,-950 9.5,-979 64.5,-979 64.5,-950 9.5,-950"/>
<polygon fill="none" stroke="black" points="9.5,-950 9.5,-979 64.5,-979 64.5,-950 9.5,-950"/>
<text text-anchor="start" x="16.5" y="-960.8" font-family="Helvetica,sans-Serif" font-size="14.00" fill="#555555">int</text>
<polygon fill="#ffffff" stroke="transparent" points="64.5,-950 64.5,-979 230.5,-979 230.5,-950 64.5,-950"/>
<polygon fill="none" stroke="black" points="64.5,-950 64.5,-979 230.5,-979 230.5,-950 64.5,-950"/>
<text text-anchor="start" x="71.5" y="-960.8" font-family="Helvetica,sans-Serif" font-size="14.00">client_key</text>
<polygon fill="#ffffff" stroke="transparent" points="230.5,-950 230.5,-979 266.5,-979 266.5,-950 230.5,-950"/>
<polygon fill="none" stroke="black" points="230.5,-950 230.5,-979 266.5,-979 266.5,-950 230.5,-950"/>
<text text-anchor="start" x="237.5" y="-961.8" font-family="Helvetica,sans-Serif" font-weight="bold" font-size="14.00">PK</text>
<polygon fill="#ffffff" stroke="transparent" points="9.5,-921 9.5,-950 64.5,-950 64.5,-921 9.5,-921"/>
<polygon fill="none" stroke="black" points="9.5,-921 9.5,-950 64.5,-950 64.5,-921 9.5,-921"/>
<text text-anchor="start" x="16.5" y="-931.8" font-family="Helvetica,sans-Serif" font-size="14.00" fill="#555555">int</text>
<polygon fill="#ffffff" stroke="transparent" points="64.5,-921 64.5,-950 230.5,-950 230.5,-921 64.5,-921"/>
<polygon fill="none" stroke="black" points="64.5,-921 64.5,-950 230.5,-950 230.5,-921 64.5,-921"/>
<text text-anchor="start" x="71.5" y="-931.8" font-family="Helvetica,sans-Serif" font-size="14.00">CUSTOMER_NO</text>
<polygon fill="#ffffff" stroke="transparent" points="230.5,-921 230.5,-950 266.5,-950 266.5,-921 230.5,-921"/>
<polygon fill="none" stroke="black" points="230.5,-921 230.5,-950 266.5,-950 266.5,-921 230.5,-921"/>
<polygon fill="#ffffff" stroke="transparent" points="9.5,-892 9.5,-921 64.5,-921 64.5,-892 9.5,-892"/>
<polygon fill="none" stroke="black" points="9.5,-892 9.5,-921 64.5,-921 64.5,-892 9.5,-892"/>
<text text-anchor="start" x="16.5" y="-902.8" font-family="Helvetica,sans-Serif" font-size="14.00" fill="#555555">int</text>
<polygon fill="#ffffff" stroke="transparent" points="64.5,-892 64.5,-921 230.5,-921 230.5,-892 64.5,-892"/>
<polygon fill="none" stroke="black" points="64.5,-892 64.5,-921 230.5,-921 230.5,-892 64.5,-892"/>
<text text-anchor="start" x="71.5" y="-902.8" font-family="Helvetica,sans-Serif" font-size="14.00">DATE_OF_BIRTH</text>
<polygon fill="#ffffff" stroke="transparent" points="230.5,-892 230.5,-921 266.5,-921 266.5,-892 230.5,-892"/>
<polygon fill="none" stroke="black" points="230.5,-892 230.5,-921 266.5,-921 266.5,-892 230.5,-892"/>
<polygon fill="#ffffff" stroke="transparent" points="9.5,-863 9.5,-892 64.5,-892 64.5,-863 9.5,-863"/>
<polygon fill="none" stroke="black" points="9.5,-863 9.5,-892 64.5,-892 64.5,-863 9.5,-863"/>
<text text-anchor="start" x="16.5" y="-873.8" font-family="Helvetica,sans-Serif" font-size="14.00" fill="#555555">int</text>
<polygon fill="#ffffff" stroke="transparent" points="64.5,-863 64.5,-892 230.5,-892 230.5,-863 64.5,-863"/>
<polygon fill="none" stroke="black" points="64.5,-863 64.5,-892 230.5,-892 230.5,-863 64.5,-863"/>
<text text-anchor="start" x="71.5" y="-873.8" font-family="Helvetica,sans-Serif" font-size="14.00">age</text>
<polygon fill="#ffffff" stroke="transparent" points="230.5,-863 230.5,-892 266.5,-892 266.5,-863 230.5,-863"/>
<polygon fill="none" stroke="black" points="230.5,-863 230.5,-892 266.5,-892 266.5,-863 230.5,-863"/>
<polygon fill="#ffffff" stroke="transparent" points="9.5,-834 9.5,-863 64.5,-863 64.5,-834 9.5,-834"/>
<polygon fill="none" stroke="black" points="9.5,-834 9.5,-863 64.5,-863 64.5,-834 9.5,-834"/>
<text text-anchor="start" x="16.5" y="-844.8" font-family="Helvetica,sans-Serif" font-size="14.00" fill="#555555">string</text>
<polygon fill="#ffffff" stroke="transparent" points="64.5,-834 64.5,-863 230.5,-863 230.5,-834 64.5,-834"/>
<polygon fill="none" stroke="black" points="64.5,-834 64.5,-863 230.5,-863 230.5,-834 64.5,-834"/>
<text text-anchor="start" x="71.5" y="-844.8" font-family="Helvetica,sans-Serif" font-size="14.00">MARITAL_STATUS</text>
<polygon fill="#ffffff" stroke="transparent" points="230.5,-834 230.5,-863 266.5,-863 266.5,-834 230.5,-834"/>
<polygon fill="none" stroke="black" points="230.5,-834 230.5,-863 266.5,-863 266.5,-834 230.5,-834"/>
<polygon fill="#ffffff" stroke="transparent" points="9.5,-805 9.5,-834 64.5,-834 64.5,-805 9.5,-805"/>
<polygon fill="none" stroke="black" points="9.5,-805 9.5,-834 64.5,-834 64.5,-805 9.5,-805"/>
<text text-anchor="start" x="16.5" y="-815.8" font-family="Helvetica,sans-Serif" font-size="14.00" fill="#555555">string</text>
<polygon fill="#ffffff" stroke="transparent" points="64.5,-805 64.5,-834 230.5,-834 230.5,-805 64.5,-805"/>
<polygon fill="none" stroke="black" points="64.5,-805 64.5,-834 230.5,-834 230.5,-805 64.5,-805"/>
<text text-anchor="start" x="71.5" y="-815.8" font-family="Helvetica,sans-Serif" font-size="14.00">NATIONALITY</text>
<polygon fill="#ffffff" stroke="transparent" points="230.5,-805 230.5,-834 266.5,-834 266.5,-805 230.5,-805"/>
<polygon fill="none" stroke="black" points="230.5,-805 230.5,-834 266.5,-834 266.5,-805 230.5,-805"/>
<polygon fill="#ffffff" stroke="transparent" points="9.5,-776 9.5,-805 64.5,-805 64.5,-776 9.5,-776"/>
<polygon fill="none" stroke="black" points="9.5,-776 9.5,-805 64.5,-805 64.5,-776 9.5,-776"/>
<text text-anchor="start" x="16.5" y="-786.8" font-family="Helvetica,sans-Serif" font-size="14.00" fill="#555555">string</text>
<polygon fill="#ffffff" stroke="transparent" points="64.5,-776 64.5,-805 230.5,-805 230.5,-776 64.5,-776"/>
<polygon fill="none" stroke="black" points="64.5,-776 64.5,-805 230.5,-805 230.5,-776 64.5,-776"/>
<text text-anchor="start" x="71.5" y="-786.8" font-family="Helvetica,sans-Serif" font-size="14.00">RESIDENCE</text>
<polygon fill="#ffffff" stroke="transparent" points="230.5,-776 230.5,-805 266.5,-805 266.5,-776 230.5,-776"/>
<polygon fill="none" stroke="black" points="230.5,-776 230.5,-805 266.5,-805 266.5,-776 230.5,-776"/>
<polygon fill="#ffffff" stroke="transparent" points="9.5,-747 9.5,-776 64.5,-776 64.5,-747 9.5,-747"/>
<polygon fill="none" stroke="black" points="9.5,-747 9.5,-776 64.5,-776 64.5,-747 9.5,-747"/>
<text text-anchor="start" x="16.5" y="-757.8" font-family="Helvetica,sans-Serif" font-size="14.00" fill="#555555">string</text>
<polygon fill="#ffffff" stroke="transparent" points="64.5,-747 64.5,-776 230.5,-776 230.5,-747 64.5,-747"/>
<polygon fill="none" stroke="black" points="64.5,-747 64.5,-776 230.5,-776 230.5,-747 64.5,-747"/>
<text text-anchor="start" x="71.5" y="-757.8" font-family="Helvetica,sans-Serif" font-size="14.00">NATURE_CLIENT</text>
<polygon fill="#ffffff" stroke="transparent" points="230.5,-747 230.5,-776 266.5,-776 266.5,-747 230.5,-747"/>
<polygon fill="none" stroke="black" points="230.5,-747 230.5,-776 266.5,-776 266.5,-747 230.5,-747"/>
<polygon fill="#ffffff" stroke="transparent" points="9.5,-718 9.5,-747 64.5,-747 64.5,-718 9.5,-718"/>
<polygon fill="none" stroke="black" points="9.5,-718 9.5,-747 64.5,-747 64.5,-718 9.5,-718"/>
<text text-anchor="start" x="16.5" y="-728.8" font-family="Helvetica,sans-Serif" font-size="14.00" fill="#555555">string</text>
<polygon fill="#ffffff" stroke="transparent" points="64.5,-718 64.5,-747 230.5,-747 230.5,-718 64.5,-718"/>
<polygon fill="none" stroke="black" points="64.5,-718 64.5,-747 230.5,-747 230.5,-718 64.5,-718"/>
<text text-anchor="start" x="71.5" y="-728.8" font-family="Helvetica,sans-Serif" font-size="14.00">PARTYCLASS</text>
<polygon fill="#ffffff" stroke="transparent" points="230.5,-718 230.5,-747 266.5,-747 266.5,-718 230.5,-718"/>
<polygon fill="none" stroke="black" points="230.5,-718 230.5,-747 266.5,-747 266.5,-718 230.5,-718"/>
<polygon fill="#ffffff" stroke="transparent" points="9.5,-689 9.5,-718 64.5,-718 64.5,-689 9.5,-689"/>
<polygon fill="none" stroke="black" points="9.5,-689 9.5,-718 64.5,-718 64.5,-689 9.5,-689"/>
<text text-anchor="start" x="16.5" y="-699.8" font-family="Helvetica,sans-Serif" font-size="14.00" fill="#555555">int</text>
<polygon fill="#ffffff" stroke="transparent" points="64.5,-689 64.5,-718 230.5,-718 230.5,-689 64.5,-689"/>
<polygon fill="none" stroke="black" points="64.5,-689 64.5,-718 230.5,-718 230.5,-689 64.5,-689"/>
<text text-anchor="start" x="71.5" y="-699.8" font-family="Helvetica,sans-Serif" font-size="14.00">LOB</text>
<polygon fill="#ffffff" stroke="transparent" points="230.5,-689 230.5,-718 266.5,-718 266.5,-689 230.5,-689"/>
<polygon fill="none" stroke="black" points="230.5,-689 230.5,-718 266.5,-718 266.5,-689 230.5,-689"/>
<polygon fill="#ffffff" stroke="transparent" points="9.5,-660 9.5,-689 64.5,-689 64.5,-660 9.5,-660"/>
<polygon fill="none" stroke="black" points="9.5,-660 9.5,-689 64.5,-689 64.5,-660 9.5,-660"/>
<text text-anchor="start" x="16.5" y="-670.8" font-family="Helvetica,sans-Serif" font-size="14.00" fill="#555555">string</text>
<polygon fill="#ffffff" stroke="transparent" points="64.5,-660 64.5,-689 230.5,-689 230.5,-660 64.5,-660"/>
<polygon fill="none" stroke="black" points="64.5,-660 64.5,-689 230.5,-689 230.5,-660 64.5,-660"/>
<text text-anchor="start" x="71.5" y="-670.8" font-family="Helvetica,sans-Serif" font-size="14.00">INDUSTRY</text>
<polygon fill="#ffffff" stroke="transparent" points="230.5,-660 230.5,-689 266.5,-689 266.5,-660 230.5,-660"/>
<polygon fill="none" stroke="black" points="230.5,-660 230.5,-689 266.5,-689 266.5,-660 230.5,-660"/>
<polygon fill="#ffffff" stroke="transparent" points="9.5,-631 9.5,-660 64.5,-660 64.5,-631 9.5,-631"/>
<polygon fill="none" stroke="black" points="9.5,-631 9.5,-660 64.5,-660 64.5,-631 9.5,-631"/>
<text text-anchor="start" x="16.5" y="-641.8" font-family="Helvetica,sans-Serif" font-size="14.00" fill="#555555">string</text>
<polygon fill="#ffffff" stroke="transparent" points="64.5,-631 64.5,-660 230.5,-660 230.5,-631 64.5,-631"/>
<polygon fill="none" stroke="black" points="64.5,-631 64.5,-660 230.5,-660 230.5,-631 64.5,-631"/>
<text text-anchor="start" x="71.5" y="-641.8" font-family="Helvetica,sans-Serif" font-size="14.00">SCORE_KYC</text>
<polygon fill="#ffffff" stroke="transparent" points="230.5,-631 230.5,-660 266.5,-660 266.5,-631 230.5,-631"/>
<polygon fill="none" stroke="black" points="230.5,-631 230.5,-660 266.5,-660 266.5,-631 230.5,-631"/>
<polygon fill="#ffffff" stroke="transparent" points="9.5,-602 9.5,-631 64.5,-631 64.5,-602 9.5,-602"/>
<polygon fill="none" stroke="black" points="9.5,-602 9.5,-631 64.5,-631 64.5,-602 9.5,-602"/>
<text text-anchor="start" x="16.5" y="-612.8" font-family="Helvetica,sans-Serif" font-size="14.00" fill="#555555">string</text>
<polygon fill="#ffffff" stroke="transparent" points="64.5,-602 64.5,-631 230.5,-631 230.5,-602 64.5,-602"/>
<polygon fill="none" stroke="black" points="64.5,-602 64.5,-631 230.5,-631 230.5,-602 64.5,-602"/>
<text text-anchor="start" x="71.5" y="-612.8" font-family="Helvetica,sans-Serif" font-size="14.00">COMPLETED_FILE</text>
<polygon fill="#ffffff" stroke="transparent" points="230.5,-602 230.5,-631 266.5,-631 266.5,-602 230.5,-602"/>
<polygon fill="none" stroke="black" points="230.5,-602 230.5,-631 266.5,-631 266.5,-602 230.5,-602"/>
<polygon fill="#ffffff" stroke="transparent" points="9.5,-573 9.5,-602 64.5,-602 64.5,-573 9.5,-573"/>
<polygon fill="none" stroke="black" points="9.5,-573 9.5,-602 64.5,-602 64.5,-573 9.5,-573"/>
<text text-anchor="start" x="16.5" y="-583.8" font-family="Helvetica,sans-Serif" font-size="14.00" fill="#555555">date</text>
<polygon fill="#ffffff" stroke="transparent" points="64.5,-573 64.5,-602 230.5,-602 230.5,-573 64.5,-573"/>
<polygon fill="none" stroke="black" points="64.5,-573 64.5,-602 230.5,-602 230.5,-573 64.5,-573"/>
<text text-anchor="start" x="71.5" y="-583.8" font-family="Helvetica,sans-Serif" font-size="14.00">CUST_OPENING_DATE</text>
<polygon fill="#ffffff" stroke="transparent" points="230.5,-573 230.5,-602 266.5,-602 266.5,-573 230.5,-573"/>
<polygon fill="none" stroke="black" points="230.5,-573 230.5,-602 266.5,-602 266.5,-573 230.5,-573"/>
<polygon fill="#ffffff" stroke="transparent" points="9.5,-544 9.5,-573 64.5,-573 64.5,-544 9.5,-544"/>
<polygon fill="none" stroke="black" points="9.5,-544 9.5,-573 64.5,-573 64.5,-544 9.5,-544"/>
<text text-anchor="start" x="16.5" y="-554.8" font-family="Helvetica,sans-Serif" font-size="14.00" fill="#555555">date</text>
<polygon fill="#ffffff" stroke="transparent" points="64.5,-544 64.5,-573 230.5,-573 230.5,-544 64.5,-544"/>
<polygon fill="none" stroke="black" points="64.5,-544 64.5,-573 230.5,-573 230.5,-544 64.5,-544"/>
<text text-anchor="start" x="71.5" y="-554.8" font-family="Helvetica,sans-Serif" font-size="14.00">LAST_REVIEW_DATE</text>
<polygon fill="#ffffff" stroke="transparent" points="230.5,-544 230.5,-573 266.5,-573 266.5,-544 230.5,-544"/>
<polygon fill="none" stroke="black" points="230.5,-544 230.5,-573 266.5,-573 266.5,-544 230.5,-544"/>
<polygon fill="none" stroke="black" points="8,-543 8,-1009 267,-1009 267,-543 8,-543"/>
</g>
<!-- FACT_ACCOUNT_EVENT -->
<g id="node7" class="node">
<title>FACT_ACCOUNT_EVENT</title>
<polygon fill="#ff9ddb" stroke="transparent" points="826.5,-410.5 826.5,-439.5 1050.5,-439.5 1050.5,-410.5 826.5,-410.5"/>
<polygon fill="none" stroke="black" points="826.5,-410.5 826.5,-439.5 1050.5,-439.5 1050.5,-410.5 826.5,-410.5"/>
<text text-anchor="start" x="848" y="-422.3" font-family="Helvetica,sans-Serif" font-weight="bold" font-size="14.00">FACT_ACCOUNT_EVENT</text>
<polygon fill="#ffffff" stroke="transparent" points="826.5,-381.5 826.5,-410.5 871.5,-410.5 871.5,-381.5 826.5,-381.5"/>
<polygon fill="none" stroke="black" points="826.5,-381.5 826.5,-410.5 871.5,-410.5 871.5,-381.5 826.5,-381.5"/>
<text text-anchor="start" x="833.5" y="-392.3" font-family="Helvetica,sans-Serif" font-size="14.00" fill="#555555">int</text>
<polygon fill="#ffffff" stroke="transparent" points="871.5,-381.5 871.5,-410.5 1015.5,-410.5 1015.5,-381.5 871.5,-381.5"/>
<polygon fill="none" stroke="black" points="871.5,-381.5 871.5,-410.5 1015.5,-410.5 1015.5,-381.5 871.5,-381.5"/>
<text text-anchor="start" x="878.5" y="-392.3" font-family="Helvetica,sans-Serif" font-size="14.00">client_key</text>
<polygon fill="#ffffff" stroke="transparent" points="1015.5,-381.5 1015.5,-410.5 1050.5,-410.5 1050.5,-381.5 1015.5,-381.5"/>
<polygon fill="none" stroke="black" points="1015.5,-381.5 1015.5,-410.5 1050.5,-410.5 1050.5,-381.5 1015.5,-381.5"/>
<text text-anchor="start" x="1022.5" y="-393.3" font-family="Helvetica,sans-Serif" font-weight="bold" font-size="14.00">FK</text>
<polygon fill="#ffffff" stroke="transparent" points="826.5,-352.5 826.5,-381.5 871.5,-381.5 871.5,-352.5 826.5,-352.5"/>
<polygon fill="none" stroke="black" points="826.5,-352.5 826.5,-381.5 871.5,-381.5 871.5,-352.5 826.5,-352.5"/>
<text text-anchor="start" x="833.5" y="-363.3" font-family="Helvetica,sans-Serif" font-size="14.00" fill="#555555">int</text>
<polygon fill="#ffffff" stroke="transparent" points="871.5,-352.5 871.5,-381.5 1015.5,-381.5 1015.5,-352.5 871.5,-352.5"/>
<polygon fill="none" stroke="black" points="871.5,-352.5 871.5,-381.5 1015.5,-381.5 1015.5,-352.5 871.5,-352.5"/>
<text text-anchor="start" x="878.5" y="-363.3" font-family="Helvetica,sans-Serif" font-size="14.00">account_key</text>
<polygon fill="#ffffff" stroke="transparent" points="1015.5,-352.5 1015.5,-381.5 1050.5,-381.5 1050.5,-352.5 1015.5,-352.5"/>
<polygon fill="none" stroke="black" points="1015.5,-352.5 1015.5,-381.5 1050.5,-381.5 1050.5,-352.5 1015.5,-352.5"/>
<text text-anchor="start" x="1022.5" y="-364.3" font-family="Helvetica,sans-Serif" font-weight="bold" font-size="14.00">FK</text>
<polygon fill="#ffffff" stroke="transparent" points="826.5,-323.5 826.5,-352.5 871.5,-352.5 871.5,-323.5 826.5,-323.5"/>
<polygon fill="none" stroke="black" points="826.5,-323.5 826.5,-352.5 871.5,-352.5 871.5,-323.5 826.5,-323.5"/>
<text text-anchor="start" x="833.5" y="-334.3" font-family="Helvetica,sans-Serif" font-size="14.00" fill="#555555">int</text>
<polygon fill="#ffffff" stroke="transparent" points="871.5,-323.5 871.5,-352.5 1015.5,-352.5 1015.5,-323.5 871.5,-323.5"/>
<polygon fill="none" stroke="black" points="871.5,-323.5 871.5,-352.5 1015.5,-352.5 1015.5,-323.5 871.5,-323.5"/>
<text text-anchor="start" x="878.5" y="-334.3" font-family="Helvetica,sans-Serif" font-size="14.00">product_key</text>
<polygon fill="#ffffff" stroke="transparent" points="1015.5,-323.5 1015.5,-352.5 1050.5,-352.5 1050.5,-323.5 1015.5,-323.5"/>
<polygon fill="none" stroke="black" points="1015.5,-323.5 1015.5,-352.5 1050.5,-352.5 1050.5,-323.5 1015.5,-323.5"/>
<text text-anchor="start" x="1022.5" y="-335.3" font-family="Helvetica,sans-Serif" font-weight="bold" font-size="14.00">FK</text>
<polygon fill="#ffffff" stroke="transparent" points="826.5,-294.5 826.5,-323.5 871.5,-323.5 871.5,-294.5 826.5,-294.5"/>
<polygon fill="none" stroke="black" points="826.5,-294.5 826.5,-323.5 871.5,-323.5 871.5,-294.5 826.5,-294.5"/>
<text text-anchor="start" x="833.5" y="-305.3" font-family="Helvetica,sans-Serif" font-size="14.00" fill="#555555">int</text>
<polygon fill="#ffffff" stroke="transparent" points="871.5,-294.5 871.5,-323.5 1015.5,-323.5 1015.5,-294.5 871.5,-294.5"/>
<polygon fill="none" stroke="black" points="871.5,-294.5 871.5,-323.5 1015.5,-323.5 1015.5,-294.5 871.5,-294.5"/>
<text text-anchor="start" x="878.5" y="-305.3" font-family="Helvetica,sans-Serif" font-size="14.00">branch_key</text>
<polygon fill="#ffffff" stroke="transparent" points="1015.5,-294.5 1015.5,-323.5 1050.5,-323.5 1050.5,-294.5 1015.5,-294.5"/>
<polygon fill="none" stroke="black" points="1015.5,-294.5 1015.5,-323.5 1050.5,-323.5 1050.5,-294.5 1015.5,-294.5"/>
<text text-anchor="start" x="1022.5" y="-306.3" font-family="Helvetica,sans-Serif" font-weight="bold" font-size="14.00">FK</text>
<polygon fill="#ffffff" stroke="transparent" points="826.5,-265.5 826.5,-294.5 871.5,-294.5 871.5,-265.5 826.5,-265.5"/>
<polygon fill="none" stroke="black" points="826.5,-265.5 826.5,-294.5 871.5,-294.5 871.5,-265.5 826.5,-265.5"/>
<text text-anchor="start" x="833.5" y="-276.3" font-family="Helvetica,sans-Serif" font-size="14.00" fill="#555555">int</text>
<polygon fill="#ffffff" stroke="transparent" points="871.5,-265.5 871.5,-294.5 1015.5,-294.5 1015.5,-265.5 871.5,-265.5"/>
<polygon fill="none" stroke="black" points="871.5,-265.5 871.5,-294.5 1015.5,-294.5 1015.5,-265.5 871.5,-265.5"/>
<text text-anchor="start" x="878.5" y="-276.3" font-family="Helvetica,sans-Serif" font-size="14.00">date_key</text>
<polygon fill="#ffffff" stroke="transparent" points="1015.5,-265.5 1015.5,-294.5 1050.5,-294.5 1050.5,-265.5 1015.5,-265.5"/>
<polygon fill="none" stroke="black" points="1015.5,-265.5 1015.5,-294.5 1050.5,-294.5 1050.5,-265.5 1015.5,-265.5"/>
<text text-anchor="start" x="1022.5" y="-277.3" font-family="Helvetica,sans-Serif" font-weight="bold" font-size="14.00">FK</text>
<polygon fill="#ffffff" stroke="transparent" points="826.5,-236.5 826.5,-265.5 871.5,-265.5 871.5,-236.5 826.5,-236.5"/>
<polygon fill="none" stroke="black" points="826.5,-236.5 826.5,-265.5 871.5,-265.5 871.5,-236.5 826.5,-236.5"/>
<text text-anchor="start" x="833.5" y="-247.3" font-family="Helvetica,sans-Serif" font-size="14.00" fill="#555555">int</text>
<polygon fill="#ffffff" stroke="transparent" points="871.5,-236.5 871.5,-265.5 1015.5,-265.5 1015.5,-236.5 871.5,-236.5"/>
<polygon fill="none" stroke="black" points="871.5,-236.5 871.5,-265.5 1015.5,-265.5 1015.5,-236.5 871.5,-236.5"/>
<text text-anchor="start" x="878.5" y="-247.3" font-family="Helvetica,sans-Serif" font-size="14.00">closure_key</text>
<polygon fill="#ffffff" stroke="transparent" points="1015.5,-236.5 1015.5,-265.5 1050.5,-265.5 1050.5,-236.5 1015.5,-236.5"/>
<polygon fill="none" stroke="black" points="1015.5,-236.5 1015.5,-265.5 1050.5,-265.5 1050.5,-236.5 1015.5,-236.5"/>
<text text-anchor="start" x="1022.5" y="-248.3" font-family="Helvetica,sans-Serif" font-weight="bold" font-size="14.00">FK</text>
<polygon fill="#ffffff" stroke="transparent" points="826.5,-207.5 826.5,-236.5 871.5,-236.5 871.5,-207.5 826.5,-207.5"/>
<polygon fill="none" stroke="black" points="826.5,-207.5 826.5,-236.5 871.5,-236.5 871.5,-207.5 826.5,-207.5"/>
<text text-anchor="start" x="833.5" y="-218.3" font-family="Helvetica,sans-Serif" font-size="14.00" fill="#555555">float</text>
<polygon fill="#ffffff" stroke="transparent" points="871.5,-207.5 871.5,-236.5 1015.5,-236.5 1015.5,-207.5 871.5,-207.5"/>
<polygon fill="none" stroke="black" points="871.5,-207.5 871.5,-236.5 1015.5,-236.5 1015.5,-207.5 871.5,-207.5"/>
<text text-anchor="start" x="878.5" y="-218.3" font-family="Helvetica,sans-Serif" font-size="14.00">ACCT_BALANCE</text>
<polygon fill="#ffffff" stroke="transparent" points="1015.5,-207.5 1015.5,-236.5 1050.5,-236.5 1050.5,-207.5 1015.5,-207.5"/>
<polygon fill="none" stroke="black" points="1015.5,-207.5 1015.5,-236.5 1050.5,-236.5 1050.5,-207.5 1015.5,-207.5"/>
<polygon fill="#ffffff" stroke="transparent" points="826.5,-178.5 826.5,-207.5 871.5,-207.5 871.5,-178.5 826.5,-178.5"/>
<polygon fill="none" stroke="black" points="826.5,-178.5 826.5,-207.5 871.5,-207.5 871.5,-178.5 826.5,-178.5"/>
<text text-anchor="start" x="833.5" y="-189.3" font-family="Helvetica,sans-Serif" font-size="14.00" fill="#555555">float</text>
<polygon fill="#ffffff" stroke="transparent" points="871.5,-178.5 871.5,-207.5 1015.5,-207.5 1015.5,-178.5 871.5,-178.5"/>
<polygon fill="none" stroke="black" points="871.5,-178.5 871.5,-207.5 1015.5,-207.5 1015.5,-178.5 871.5,-178.5"/>
<text text-anchor="start" x="878.5" y="-189.3" font-family="Helvetica,sans-Serif" font-size="14.00">SALARY</text>
<polygon fill="#ffffff" stroke="transparent" points="1015.5,-178.5 1015.5,-207.5 1050.5,-207.5 1050.5,-178.5 1015.5,-178.5"/>
<polygon fill="none" stroke="black" points="1015.5,-178.5 1015.5,-207.5 1050.5,-207.5 1050.5,-178.5 1015.5,-178.5"/>
<polygon fill="#ffffff" stroke="transparent" points="826.5,-149.5 826.5,-178.5 871.5,-178.5 871.5,-149.5 826.5,-149.5"/>
<polygon fill="none" stroke="black" points="826.5,-149.5 826.5,-178.5 871.5,-178.5 871.5,-149.5 826.5,-149.5"/>
<text text-anchor="start" x="833.5" y="-160.3" font-family="Helvetica,sans-Serif" font-size="14.00" fill="#555555">float</text>
<polygon fill="#ffffff" stroke="transparent" points="871.5,-149.5 871.5,-178.5 1015.5,-178.5 1015.5,-149.5 871.5,-149.5"/>
<polygon fill="none" stroke="black" points="871.5,-149.5 871.5,-178.5 1015.5,-178.5 1015.5,-149.5 871.5,-149.5"/>
<text text-anchor="start" x="878.5" y="-160.3" font-family="Helvetica,sans-Serif" font-size="14.00">AMOUNT</text>
<polygon fill="#ffffff" stroke="transparent" points="1015.5,-149.5 1015.5,-178.5 1050.5,-178.5 1050.5,-149.5 1015.5,-149.5"/>
<polygon fill="none" stroke="black" points="1015.5,-149.5 1015.5,-178.5 1050.5,-178.5 1050.5,-149.5 1015.5,-149.5"/>
<polygon fill="#ffffff" stroke="transparent" points="826.5,-120.5 826.5,-149.5 871.5,-149.5 871.5,-120.5 826.5,-120.5"/>
<polygon fill="none" stroke="black" points="826.5,-120.5 826.5,-149.5 871.5,-149.5 871.5,-120.5 826.5,-120.5"/>
<text text-anchor="start" x="833.5" y="-131.3" font-family="Helvetica,sans-Serif" font-size="14.00" fill="#555555">float</text>
<polygon fill="#ffffff" stroke="transparent" points="871.5,-120.5 871.5,-149.5 1015.5,-149.5 1015.5,-120.5 871.5,-120.5"/>
<polygon fill="none" stroke="black" points="871.5,-120.5 871.5,-149.5 1015.5,-149.5 1015.5,-120.5 871.5,-120.5"/>
<text text-anchor="start" x="878.5" y="-131.3" font-family="Helvetica,sans-Serif" font-size="14.00">FIXEDRATE</text>
<polygon fill="#ffffff" stroke="transparent" points="1015.5,-120.5 1015.5,-149.5 1050.5,-149.5 1050.5,-120.5 1015.5,-120.5"/>
<polygon fill="none" stroke="black" points="1015.5,-120.5 1015.5,-149.5 1050.5,-149.5 1050.5,-120.5 1015.5,-120.5"/>
<polygon fill="#ffffff" stroke="transparent" points="826.5,-91.5 826.5,-120.5 871.5,-120.5 871.5,-91.5 826.5,-91.5"/>
<polygon fill="none" stroke="black" points="826.5,-91.5 826.5,-120.5 871.5,-120.5 871.5,-91.5 826.5,-91.5"/>
<text text-anchor="start" x="833.5" y="-102.3" font-family="Helvetica,sans-Serif" font-size="14.00" fill="#555555">int</text>
<polygon fill="#ffffff" stroke="transparent" points="871.5,-91.5 871.5,-120.5 1015.5,-120.5 1015.5,-91.5 871.5,-91.5"/>
<polygon fill="none" stroke="black" points="871.5,-91.5 871.5,-120.5 1015.5,-120.5 1015.5,-91.5 871.5,-91.5"/>
<text text-anchor="start" x="878.5" y="-102.3" font-family="Helvetica,sans-Serif" font-size="14.00">acct_tenure_days</text>
<polygon fill="#ffffff" stroke="transparent" points="1015.5,-91.5 1015.5,-120.5 1050.5,-120.5 1050.5,-91.5 1015.5,-91.5"/>
<polygon fill="none" stroke="black" points="1015.5,-91.5 1015.5,-120.5 1050.5,-120.5 1050.5,-91.5 1015.5,-91.5"/>
<polygon fill="#ffffff" stroke="transparent" points="826.5,-62.5 826.5,-91.5 871.5,-91.5 871.5,-62.5 826.5,-62.5"/>
<polygon fill="none" stroke="black" points="826.5,-62.5 826.5,-91.5 871.5,-91.5 871.5,-62.5 826.5,-62.5"/>
<text text-anchor="start" x="833.5" y="-73.3" font-family="Helvetica,sans-Serif" font-size="14.00" fill="#555555">int</text>
<polygon fill="#ffffff" stroke="transparent" points="871.5,-62.5 871.5,-91.5 1015.5,-91.5 1015.5,-62.5 871.5,-62.5"/>
<polygon fill="none" stroke="black" points="871.5,-62.5 871.5,-91.5 1015.5,-91.5 1015.5,-62.5 871.5,-62.5"/>
<text text-anchor="start" x="878.5" y="-73.3" font-family="Helvetica,sans-Serif" font-size="14.00">client_tenure_days</text>
<polygon fill="#ffffff" stroke="transparent" points="1015.5,-62.5 1015.5,-91.5 1050.5,-91.5 1050.5,-62.5 1015.5,-62.5"/>
<polygon fill="none" stroke="black" points="1015.5,-62.5 1015.5,-91.5 1050.5,-91.5 1050.5,-62.5 1015.5,-62.5"/>
<polygon fill="#ffffff" stroke="transparent" points="826.5,-33.5 826.5,-62.5 871.5,-62.5 871.5,-33.5 826.5,-33.5"/>
<polygon fill="none" stroke="black" points="826.5,-33.5 826.5,-62.5 871.5,-62.5 871.5,-33.5 826.5,-33.5"/>
<text text-anchor="start" x="833.5" y="-44.3" font-family="Helvetica,sans-Serif" font-size="14.00" fill="#555555">int</text>
<polygon fill="#ffffff" stroke="transparent" points="871.5,-33.5 871.5,-62.5 1015.5,-62.5 1015.5,-33.5 871.5,-33.5"/>
<polygon fill="none" stroke="black" points="871.5,-33.5 871.5,-62.5 1015.5,-62.5 1015.5,-33.5 871.5,-33.5"/>
<text text-anchor="start" x="878.5" y="-44.3" font-family="Helvetica,sans-Serif" font-size="14.00">nb_accounts</text>
<polygon fill="#ffffff" stroke="transparent" points="1015.5,-33.5 1015.5,-62.5 1050.5,-62.5 1050.5,-33.5 1015.5,-33.5"/>
<polygon fill="none" stroke="black" points="1015.5,-33.5 1015.5,-62.5 1050.5,-62.5 1050.5,-33.5 1015.5,-33.5"/>
<polygon fill="#ffffff" stroke="transparent" points="826.5,-4.5 826.5,-33.5 871.5,-33.5 871.5,-4.5 826.5,-4.5"/>
<polygon fill="none" stroke="black" points="826.5,-4.5 826.5,-33.5 871.5,-33.5 871.5,-4.5 826.5,-4.5"/>
<text text-anchor="start" x="833.5" y="-15.3" font-family="Helvetica,sans-Serif" font-size="14.00" fill="#555555">int</text>
<polygon fill="#ffffff" stroke="transparent" points="871.5,-4.5 871.5,-33.5 1015.5,-33.5 1015.5,-4.5 871.5,-4.5"/>
<polygon fill="none" stroke="black" points="871.5,-4.5 871.5,-33.5 1015.5,-33.5 1015.5,-4.5 871.5,-4.5"/>
<text text-anchor="start" x="878.5" y="-15.3" font-family="Helvetica,sans-Serif" font-size="14.00">churn</text>
<polygon fill="#ffffff" stroke="transparent" points="1015.5,-4.5 1015.5,-33.5 1050.5,-33.5 1050.5,-4.5 1015.5,-4.5"/>
<polygon fill="none" stroke="black" points="1015.5,-4.5 1015.5,-33.5 1050.5,-33.5 1050.5,-4.5 1015.5,-4.5"/>
<polygon fill="none" stroke="black" points="825.5,-4 825.5,-441 1051.5,-441 1051.5,-4 825.5,-4"/>
</g>
<!-- DIM_CLIENT&#45;&gt;FACT_ACCOUNT_EVENT -->
<g id="edge1" class="edge">
<title>DIM_CLIENT:s&#45;&gt;FACT_ACCOUNT_EVENT:n</title>
<path fill="none" stroke="#555555" stroke-width="1.1" d="M147.5,-943.87C147.69,-751.83 158.99,-663.65 307.5,-539 525.62,-355.92 933.39,-691.42 943.32,-421.78"/>
<polygon fill="#555555" stroke="#555555" stroke-width="1.1" points="152.5,-948 142.5,-948 142.5,-946 152.5,-946 152.5,-948"/>
<polyline fill="none" stroke="#555555" stroke-width="1.1" points="147.5,-949 147.5,-944 "/>
<polygon fill="#555555" stroke="#555555" stroke-width="1.1" points="943.32,-421.5 948,-411.58 943.41,-416.5 943.5,-411.5 943.5,-411.5 943.5,-411.5 943.41,-416.5 939,-411.42 943.32,-421.5 943.32,-421.5"/>
<text text-anchor="middle" x="147.51" y="-916.8" font-family="Helvetica,sans-Serif" font-size="9.00">client_key</text>
</g>
<!-- DIM_DATE -->
<g id="node2" class="node">
<title>DIM_DATE</title>
<polygon fill="#ffd89c" stroke="transparent" points="349.5,-950 349.5,-979 596.5,-979 596.5,-950 349.5,-950"/>
<polygon fill="none" stroke="black" points="349.5,-950 349.5,-979 596.5,-979 596.5,-950 349.5,-950"/>
<text text-anchor="start" x="433.5" y="-961.8" font-family="Helvetica,sans-Serif" font-weight="bold" font-size="14.00">DIM_DATE</text>
<polygon fill="#ffffff" stroke="transparent" points="349.5,-921 349.5,-950 394.5,-950 394.5,-921 349.5,-921"/>
<polygon fill="none" stroke="black" points="349.5,-921 349.5,-950 394.5,-950 394.5,-921 349.5,-921"/>
<text text-anchor="start" x="356.5" y="-931.8" font-family="Helvetica,sans-Serif" font-size="14.00" fill="#555555">int</text>
<polygon fill="#ffffff" stroke="transparent" points="394.5,-921 394.5,-950 560.5,-950 560.5,-921 394.5,-921"/>
<polygon fill="none" stroke="black" points="394.5,-921 394.5,-950 560.5,-950 560.5,-921 394.5,-921"/>
<text text-anchor="start" x="401.5" y="-931.8" font-family="Helvetica,sans-Serif" font-size="14.00">date_key</text>
<polygon fill="#ffffff" stroke="transparent" points="560.5,-921 560.5,-950 596.5,-950 596.5,-921 560.5,-921"/>
<polygon fill="none" stroke="black" points="560.5,-921 560.5,-950 596.5,-950 596.5,-921 560.5,-921"/>
<text text-anchor="start" x="567.5" y="-932.8" font-family="Helvetica,sans-Serif" font-weight="bold" font-size="14.00">PK</text>
<polygon fill="#ffffff" stroke="transparent" points="349.5,-892 349.5,-921 394.5,-921 394.5,-892 349.5,-892"/>
<polygon fill="none" stroke="black" points="349.5,-892 349.5,-921 394.5,-921 394.5,-892 349.5,-892"/>
<text text-anchor="start" x="356.5" y="-902.8" font-family="Helvetica,sans-Serif" font-size="14.00" fill="#555555">date</text>
<polygon fill="#ffffff" stroke="transparent" points="394.5,-892 394.5,-921 560.5,-921 560.5,-892 394.5,-892"/>
<polygon fill="none" stroke="black" points="394.5,-892 394.5,-921 560.5,-921 560.5,-892 394.5,-892"/>
<text text-anchor="start" x="401.5" y="-902.8" font-family="Helvetica,sans-Serif" font-size="14.00">full_date</text>
<polygon fill="#ffffff" stroke="transparent" points="560.5,-892 560.5,-921 596.5,-921 596.5,-892 560.5,-892"/>
<polygon fill="none" stroke="black" points="560.5,-892 560.5,-921 596.5,-921 596.5,-892 560.5,-892"/>
<polygon fill="#ffffff" stroke="transparent" points="349.5,-863 349.5,-892 394.5,-892 394.5,-863 349.5,-863"/>
<polygon fill="none" stroke="black" points="349.5,-863 349.5,-892 394.5,-892 394.5,-863 349.5,-863"/>
<text text-anchor="start" x="356.5" y="-873.8" font-family="Helvetica,sans-Serif" font-size="14.00" fill="#555555">int</text>
<polygon fill="#ffffff" stroke="transparent" points="394.5,-863 394.5,-892 560.5,-892 560.5,-863 394.5,-863"/>
<polygon fill="none" stroke="black" points="394.5,-863 394.5,-892 560.5,-892 560.5,-863 394.5,-863"/>
<text text-anchor="start" x="401.5" y="-873.8" font-family="Helvetica,sans-Serif" font-size="14.00">year</text>
<polygon fill="#ffffff" stroke="transparent" points="560.5,-863 560.5,-892 596.5,-892 596.5,-863 560.5,-863"/>
<polygon fill="none" stroke="black" points="560.5,-863 560.5,-892 596.5,-892 596.5,-863 560.5,-863"/>
<polygon fill="#ffffff" stroke="transparent" points="349.5,-834 349.5,-863 394.5,-863 394.5,-834 349.5,-834"/>
<polygon fill="none" stroke="black" points="349.5,-834 349.5,-863 394.5,-863 394.5,-834 349.5,-834"/>
<text text-anchor="start" x="356.5" y="-844.8" font-family="Helvetica,sans-Serif" font-size="14.00" fill="#555555">int</text>
<polygon fill="#ffffff" stroke="transparent" points="394.5,-834 394.5,-863 560.5,-863 560.5,-834 394.5,-834"/>
<polygon fill="none" stroke="black" points="394.5,-834 394.5,-863 560.5,-863 560.5,-834 394.5,-834"/>
<text text-anchor="start" x="401.5" y="-844.8" font-family="Helvetica,sans-Serif" font-size="14.00">quarter</text>
<polygon fill="#ffffff" stroke="transparent" points="560.5,-834 560.5,-863 596.5,-863 596.5,-834 560.5,-834"/>
<polygon fill="none" stroke="black" points="560.5,-834 560.5,-863 596.5,-863 596.5,-834 560.5,-834"/>
<polygon fill="#ffffff" stroke="transparent" points="349.5,-805 349.5,-834 394.5,-834 394.5,-805 349.5,-805"/>
<polygon fill="none" stroke="black" points="349.5,-805 349.5,-834 394.5,-834 394.5,-805 349.5,-805"/>
<text text-anchor="start" x="356.5" y="-815.8" font-family="Helvetica,sans-Serif" font-size="14.00" fill="#555555">int</text>
<polygon fill="#ffffff" stroke="transparent" points="394.5,-805 394.5,-834 560.5,-834 560.5,-805 394.5,-805"/>
<polygon fill="none" stroke="black" points="394.5,-805 394.5,-834 560.5,-834 560.5,-805 394.5,-805"/>
<text text-anchor="start" x="401.5" y="-815.8" font-family="Helvetica,sans-Serif" font-size="14.00">month</text>
<polygon fill="#ffffff" stroke="transparent" points="560.5,-805 560.5,-834 596.5,-834 596.5,-805 560.5,-805"/>
<polygon fill="none" stroke="black" points="560.5,-805 560.5,-834 596.5,-834 596.5,-805 560.5,-805"/>
<polygon fill="#ffffff" stroke="transparent" points="349.5,-776 349.5,-805 394.5,-805 394.5,-776 349.5,-776"/>
<polygon fill="none" stroke="black" points="349.5,-776 349.5,-805 394.5,-805 394.5,-776 349.5,-776"/>
<text text-anchor="start" x="356.5" y="-786.8" font-family="Helvetica,sans-Serif" font-size="14.00" fill="#555555">date</text>
<polygon fill="#ffffff" stroke="transparent" points="394.5,-776 394.5,-805 560.5,-805 560.5,-776 394.5,-776"/>
<polygon fill="none" stroke="black" points="394.5,-776 394.5,-805 560.5,-805 560.5,-776 394.5,-776"/>
<text text-anchor="start" x="401.5" y="-786.8" font-family="Helvetica,sans-Serif" font-size="14.00">CUST_OPENING_DATE</text>
<polygon fill="#ffffff" stroke="transparent" points="560.5,-776 560.5,-805 596.5,-805 596.5,-776 560.5,-776"/>
<polygon fill="none" stroke="black" points="560.5,-776 560.5,-805 596.5,-805 596.5,-776 560.5,-776"/>
<polygon fill="#ffffff" stroke="transparent" points="349.5,-747 349.5,-776 394.5,-776 394.5,-747 349.5,-747"/>
<polygon fill="none" stroke="black" points="349.5,-747 349.5,-776 394.5,-776 394.5,-747 349.5,-747"/>
<text text-anchor="start" x="356.5" y="-757.8" font-family="Helvetica,sans-Serif" font-size="14.00" fill="#555555">date</text>
<polygon fill="#ffffff" stroke="transparent" points="394.5,-747 394.5,-776 560.5,-776 560.5,-747 394.5,-747"/>
<polygon fill="none" stroke="black" points="394.5,-747 394.5,-776 560.5,-776 560.5,-747 394.5,-747"/>
<text text-anchor="start" x="401.5" y="-757.8" font-family="Helvetica,sans-Serif" font-size="14.00">ACCT_OPENING_DATE</text>
<polygon fill="#ffffff" stroke="transparent" points="560.5,-747 560.5,-776 596.5,-776 596.5,-747 560.5,-747"/>
<polygon fill="none" stroke="black" points="560.5,-747 560.5,-776 596.5,-776 596.5,-747 560.5,-747"/>
<polygon fill="#ffffff" stroke="transparent" points="349.5,-718 349.5,-747 394.5,-747 394.5,-718 349.5,-718"/>
<polygon fill="none" stroke="black" points="349.5,-718 349.5,-747 394.5,-747 394.5,-718 349.5,-718"/>
<text text-anchor="start" x="356.5" y="-728.8" font-family="Helvetica,sans-Serif" font-size="14.00" fill="#555555">date</text>
<polygon fill="#ffffff" stroke="transparent" points="394.5,-718 394.5,-747 560.5,-747 560.5,-718 394.5,-718"/>
<polygon fill="none" stroke="black" points="394.5,-718 394.5,-747 560.5,-747 560.5,-718 394.5,-718"/>
<text text-anchor="start" x="401.5" y="-728.8" font-family="Helvetica,sans-Serif" font-size="14.00">ACCT_CLOSE_DATE</text>
<polygon fill="#ffffff" stroke="transparent" points="560.5,-718 560.5,-747 596.5,-747 596.5,-718 560.5,-718"/>
<polygon fill="none" stroke="black" points="560.5,-718 560.5,-747 596.5,-747 596.5,-718 560.5,-718"/>
<polygon fill="#ffffff" stroke="transparent" points="349.5,-689 349.5,-718 394.5,-718 394.5,-689 349.5,-689"/>
<polygon fill="none" stroke="black" points="349.5,-689 349.5,-718 394.5,-718 394.5,-689 349.5,-689"/>
<text text-anchor="start" x="356.5" y="-699.8" font-family="Helvetica,sans-Serif" font-size="14.00" fill="#555555">date</text>
<polygon fill="#ffffff" stroke="transparent" points="394.5,-689 394.5,-718 560.5,-718 560.5,-689 394.5,-689"/>
<polygon fill="none" stroke="black" points="394.5,-689 394.5,-718 560.5,-718 560.5,-689 394.5,-689"/>
<text text-anchor="start" x="401.5" y="-699.8" font-family="Helvetica,sans-Serif" font-size="14.00">LAST_REVIEW_DATE</text>
<polygon fill="#ffffff" stroke="transparent" points="560.5,-689 560.5,-718 596.5,-718 596.5,-689 560.5,-689"/>
<polygon fill="none" stroke="black" points="560.5,-689 560.5,-718 596.5,-718 596.5,-689 560.5,-689"/>
<polygon fill="#ffffff" stroke="transparent" points="349.5,-660 349.5,-689 394.5,-689 394.5,-660 349.5,-660"/>
<polygon fill="none" stroke="black" points="349.5,-660 349.5,-689 394.5,-689 394.5,-660 349.5,-660"/>
<text text-anchor="start" x="356.5" y="-670.8" font-family="Helvetica,sans-Serif" font-size="14.00" fill="#555555">date</text>
<polygon fill="#ffffff" stroke="transparent" points="394.5,-660 394.5,-689 560.5,-689 560.5,-660 394.5,-660"/>
<polygon fill="none" stroke="black" points="394.5,-660 394.5,-689 560.5,-689 560.5,-660 394.5,-660"/>
<text text-anchor="start" x="401.5" y="-670.8" font-family="Helvetica,sans-Serif" font-size="14.00">NEXT__REVIEW_DATE</text>
<polygon fill="#ffffff" stroke="transparent" points="560.5,-660 560.5,-689 596.5,-689 596.5,-660 560.5,-660"/>
<polygon fill="none" stroke="black" points="560.5,-660 560.5,-689 596.5,-689 596.5,-660 560.5,-660"/>
<polygon fill="#ffffff" stroke="transparent" points="349.5,-631 349.5,-660 394.5,-660 394.5,-631 349.5,-631"/>
<polygon fill="none" stroke="black" points="349.5,-631 349.5,-660 394.5,-660 394.5,-631 349.5,-631"/>
<text text-anchor="start" x="356.5" y="-641.8" font-family="Helvetica,sans-Serif" font-size="14.00" fill="#555555">date</text>
<polygon fill="#ffffff" stroke="transparent" points="394.5,-631 394.5,-660 560.5,-660 560.5,-631 394.5,-631"/>
<polygon fill="none" stroke="black" points="394.5,-631 394.5,-660 560.5,-660 560.5,-631 394.5,-631"/>
<text text-anchor="start" x="401.5" y="-641.8" font-family="Helvetica,sans-Serif" font-size="14.00">STARTDATE</text>
<polygon fill="#ffffff" stroke="transparent" points="560.5,-631 560.5,-660 596.5,-660 596.5,-631 560.5,-631"/>
<polygon fill="none" stroke="black" points="560.5,-631 560.5,-660 596.5,-660 596.5,-631 560.5,-631"/>
<polygon fill="#ffffff" stroke="transparent" points="349.5,-602 349.5,-631 394.5,-631 394.5,-602 349.5,-602"/>
<polygon fill="none" stroke="black" points="349.5,-602 349.5,-631 394.5,-631 394.5,-602 349.5,-602"/>
<text text-anchor="start" x="356.5" y="-612.8" font-family="Helvetica,sans-Serif" font-size="14.00" fill="#555555">date</text>
<polygon fill="#ffffff" stroke="transparent" points="394.5,-602 394.5,-631 560.5,-631 560.5,-602 394.5,-602"/>
<polygon fill="none" stroke="black" points="394.5,-602 394.5,-631 560.5,-631 560.5,-602 394.5,-602"/>
<text text-anchor="start" x="401.5" y="-612.8" font-family="Helvetica,sans-Serif" font-size="14.00">MATURITYDATE</text>
<polygon fill="#ffffff" stroke="transparent" points="560.5,-602 560.5,-631 596.5,-631 596.5,-602 560.5,-602"/>
<polygon fill="none" stroke="black" points="560.5,-602 560.5,-631 596.5,-631 596.5,-602 560.5,-602"/>
<polygon fill="#ffffff" stroke="transparent" points="349.5,-573 349.5,-602 394.5,-602 394.5,-573 349.5,-573"/>
<polygon fill="none" stroke="black" points="349.5,-573 349.5,-602 394.5,-602 394.5,-573 349.5,-573"/>
<text text-anchor="start" x="356.5" y="-583.8" font-family="Helvetica,sans-Serif" font-size="14.00" fill="#555555">int</text>
<polygon fill="#ffffff" stroke="transparent" points="394.5,-573 394.5,-602 560.5,-602 560.5,-573 394.5,-573"/>
<polygon fill="none" stroke="black" points="394.5,-573 394.5,-602 560.5,-602 560.5,-573 394.5,-573"/>
<text text-anchor="start" x="401.5" y="-583.8" font-family="Helvetica,sans-Serif" font-size="14.00">DATE_OF_BIRTH</text>
<polygon fill="#ffffff" stroke="transparent" points="560.5,-573 560.5,-602 596.5,-602 596.5,-573 560.5,-573"/>
<polygon fill="none" stroke="black" points="560.5,-573 560.5,-602 596.5,-602 596.5,-573 560.5,-573"/>
<polygon fill="none" stroke="black" points="348,-572 348,-980 597,-980 597,-572 348,-572"/>
</g>
<!-- DIM_DATE&#45;&gt;FACT_ACCOUNT_EVENT -->
<g id="edge2" class="edge">
<title>DIM_DATE:s&#45;&gt;FACT_ACCOUNT_EVENT:n</title>
<path fill="none" stroke="#555555" stroke-width="1.1" d="M477.51,-914.92C478.42,-735.39 527.66,-684.06 637.5,-539 740.27,-403.28 935.29,-466.57 943.25,-305.89"/>
<polygon fill="#555555" stroke="#555555" stroke-width="1.1" points="482.5,-919.01 472.5,-918.99 472.51,-916.99 482.51,-917.01 482.5,-919.01"/>
<polyline fill="none" stroke="#555555" stroke-width="1.1" points="477.5,-920 477.51,-915 "/>
<polygon fill="#555555" stroke="#555555" stroke-width="1.1" points="943.26,-305.5 948,-295.61 943.38,-300.5 943.5,-295.5 943.5,-295.5 943.5,-295.5 943.38,-300.5 939,-295.39 943.26,-305.5 943.26,-305.5"/>
<text text-anchor="middle" x="477.58" y="-887.8" font-family="Helvetica,sans-Serif" font-size="9.00">date_key</text>
</g>
<!-- DIM_BRANCH -->
<g id="node3" class="node">
<title>DIM_BRANCH</title>
<polygon fill="#9ce3f7" stroke="transparent" points="679.5,-848 679.5,-877 873.5,-877 873.5,-848 679.5,-848"/>
<polygon fill="none" stroke="black" points="679.5,-848 679.5,-877 873.5,-877 873.5,-848 679.5,-848"/>
<text text-anchor="start" x="724.5" y="-859.8" font-family="Helvetica,sans-Serif" font-weight="bold" font-size="14.00">DIM_BRANCH</text>
<polygon fill="#ffffff" stroke="transparent" points="679.5,-819 679.5,-848 734.5,-848 734.5,-819 679.5,-819"/>
<polygon fill="none" stroke="black" points="679.5,-819 679.5,-848 734.5,-848 734.5,-819 679.5,-819"/>
<text text-anchor="start" x="686.5" y="-829.8" font-family="Helvetica,sans-Serif" font-size="14.00" fill="#555555">int</text>
<polygon fill="#ffffff" stroke="transparent" points="734.5,-819 734.5,-848 837.5,-848 837.5,-819 734.5,-819"/>
<polygon fill="none" stroke="black" points="734.5,-819 734.5,-848 837.5,-848 837.5,-819 734.5,-819"/>
<text text-anchor="start" x="741.5" y="-829.8" font-family="Helvetica,sans-Serif" font-size="14.00">branch_key</text>
<polygon fill="#ffffff" stroke="transparent" points="837.5,-819 837.5,-848 873.5,-848 873.5,-819 837.5,-819"/>
<polygon fill="none" stroke="black" points="837.5,-819 837.5,-848 873.5,-848 873.5,-819 837.5,-819"/>
<text text-anchor="start" x="844.5" y="-830.8" font-family="Helvetica,sans-Serif" font-weight="bold" font-size="14.00">PK</text>
<polygon fill="#ffffff" stroke="transparent" points="679.5,-790 679.5,-819 734.5,-819 734.5,-790 679.5,-790"/>
<polygon fill="none" stroke="black" points="679.5,-790 679.5,-819 734.5,-819 734.5,-790 679.5,-790"/>
<text text-anchor="start" x="686.5" y="-800.8" font-family="Helvetica,sans-Serif" font-size="14.00" fill="#555555">string</text>
<polygon fill="#ffffff" stroke="transparent" points="734.5,-790 734.5,-819 837.5,-819 837.5,-790 734.5,-790"/>
<polygon fill="none" stroke="black" points="734.5,-790 734.5,-819 837.5,-819 837.5,-790 734.5,-790"/>
<text text-anchor="start" x="741.5" y="-800.8" font-family="Helvetica,sans-Serif" font-size="14.00">BRANCH</text>
<polygon fill="#ffffff" stroke="transparent" points="837.5,-790 837.5,-819 873.5,-819 873.5,-790 837.5,-790"/>
<polygon fill="none" stroke="black" points="837.5,-790 837.5,-819 873.5,-819 873.5,-790 837.5,-790"/>
<polygon fill="#ffffff" stroke="transparent" points="679.5,-761 679.5,-790 734.5,-790 734.5,-761 679.5,-761"/>
<polygon fill="none" stroke="black" points="679.5,-761 679.5,-790 734.5,-790 734.5,-761 679.5,-761"/>
<text text-anchor="start" x="686.5" y="-771.8" font-family="Helvetica,sans-Serif" font-size="14.00" fill="#555555">string</text>
<polygon fill="#ffffff" stroke="transparent" points="734.5,-761 734.5,-790 837.5,-790 837.5,-761 734.5,-761"/>
<polygon fill="none" stroke="black" points="734.5,-761 734.5,-790 837.5,-790 837.5,-761 734.5,-761"/>
<text text-anchor="start" x="741.5" y="-771.8" font-family="Helvetica,sans-Serif" font-size="14.00">branch_label</text>
<polygon fill="#ffffff" stroke="transparent" points="837.5,-761 837.5,-790 873.5,-790 873.5,-761 837.5,-761"/>
<polygon fill="none" stroke="black" points="837.5,-761 837.5,-790 873.5,-790 873.5,-761 837.5,-761"/>
<polygon fill="#ffffff" stroke="transparent" points="679.5,-732 679.5,-761 734.5,-761 734.5,-732 679.5,-732"/>
<polygon fill="none" stroke="black" points="679.5,-732 679.5,-761 734.5,-761 734.5,-732 679.5,-732"/>
<text text-anchor="start" x="686.5" y="-742.8" font-family="Helvetica,sans-Serif" font-size="14.00" fill="#555555">string</text>
<polygon fill="#ffffff" stroke="transparent" points="734.5,-732 734.5,-761 837.5,-761 837.5,-732 734.5,-732"/>
<polygon fill="none" stroke="black" points="734.5,-732 734.5,-761 837.5,-761 837.5,-732 734.5,-732"/>
<text text-anchor="start" x="741.5" y="-742.8" font-family="Helvetica,sans-Serif" font-size="14.00">region</text>
<polygon fill="#ffffff" stroke="transparent" points="837.5,-732 837.5,-761 873.5,-761 873.5,-732 837.5,-732"/>
<polygon fill="none" stroke="black" points="837.5,-732 837.5,-761 873.5,-761 873.5,-732 837.5,-732"/>
<polygon fill="#ffffff" stroke="transparent" points="679.5,-703 679.5,-732 734.5,-732 734.5,-703 679.5,-703"/>
<polygon fill="none" stroke="black" points="679.5,-703 679.5,-732 734.5,-732 734.5,-703 679.5,-703"/>
<text text-anchor="start" x="686.5" y="-713.8" font-family="Helvetica,sans-Serif" font-size="14.00" fill="#555555">int</text>
<polygon fill="#ffffff" stroke="transparent" points="734.5,-703 734.5,-732 837.5,-732 837.5,-703 734.5,-703"/>
<polygon fill="none" stroke="black" points="734.5,-703 734.5,-732 837.5,-732 837.5,-703 734.5,-703"/>
<text text-anchor="start" x="741.5" y="-713.8" font-family="Helvetica,sans-Serif" font-size="14.00">LOB</text>
<polygon fill="#ffffff" stroke="transparent" points="837.5,-703 837.5,-732 873.5,-732 873.5,-703 837.5,-703"/>
<polygon fill="none" stroke="black" points="837.5,-703 837.5,-732 873.5,-732 873.5,-703 837.5,-703"/>
<polygon fill="#ffffff" stroke="transparent" points="679.5,-674 679.5,-703 734.5,-703 734.5,-674 679.5,-674"/>
<polygon fill="none" stroke="black" points="679.5,-674 679.5,-703 734.5,-703 734.5,-674 679.5,-674"/>
<text text-anchor="start" x="686.5" y="-684.8" font-family="Helvetica,sans-Serif" font-size="14.00" fill="#555555">string</text>
<polygon fill="#ffffff" stroke="transparent" points="734.5,-674 734.5,-703 837.5,-703 837.5,-674 734.5,-674"/>
<polygon fill="none" stroke="black" points="734.5,-674 734.5,-703 837.5,-703 837.5,-674 734.5,-674"/>
<text text-anchor="start" x="741.5" y="-684.8" font-family="Helvetica,sans-Serif" font-size="14.00">PARTYCLASS</text>
<polygon fill="#ffffff" stroke="transparent" points="837.5,-674 837.5,-703 873.5,-703 873.5,-674 837.5,-674"/>
<polygon fill="none" stroke="black" points="837.5,-674 837.5,-703 873.5,-703 873.5,-674 837.5,-674"/>
<polygon fill="none" stroke="black" points="678.5,-673.5 678.5,-878.5 874.5,-878.5 874.5,-673.5 678.5,-673.5"/>
</g>
<!-- DIM_BRANCH&#45;&gt;FACT_ACCOUNT_EVENT -->
<g id="edge3" class="edge">
<title>DIM_BRANCH:s&#45;&gt;FACT_ACCOUNT_EVENT:n</title>
<path fill="none" stroke="#555555" stroke-width="1.1" d="M786.53,-812.97C788.76,-590.75 938.85,-554.06 943.39,-334.74"/>
<polygon fill="#555555" stroke="#555555" stroke-width="1.1" points="791.5,-817.03 781.51,-816.97 781.52,-814.97 791.52,-815.03 791.5,-817.03"/>
<polyline fill="none" stroke="#555555" stroke-width="1.1" points="786.5,-818 786.53,-813 "/>
<polygon fill="#555555" stroke="#555555" stroke-width="1.1" points="943.4,-334.5 948,-324.55 943.45,-329.5 943.5,-324.5 943.5,-324.5 943.5,-324.5 943.45,-329.5 939,-324.45 943.4,-334.5 943.4,-334.5"/>
<text text-anchor="middle" x="786.65" y="-785.8" font-family="Helvetica,sans-Serif" font-size="9.00">branch_key</text>
</g>
<!-- DIM_ACCOUNT -->
<g id="node4" class="node">
<title>DIM_ACCOUNT</title>
<polygon fill="#9cefa8" stroke="transparent" points="957.5,-921 957.5,-950 1224.5,-950 1224.5,-921 957.5,-921"/>
<polygon fill="none" stroke="black" points="957.5,-921 957.5,-950 1224.5,-950 1224.5,-921 957.5,-921"/>
<text text-anchor="start" x="1033.5" y="-932.8" font-family="Helvetica,sans-Serif" font-weight="bold" font-size="14.00">DIM_ACCOUNT</text>
<polygon fill="#ffffff" stroke="transparent" points="957.5,-892 957.5,-921 1012.5,-921 1012.5,-892 957.5,-892"/>
<polygon fill="none" stroke="black" points="957.5,-892 957.5,-921 1012.5,-921 1012.5,-892 957.5,-892"/>
<text text-anchor="start" x="964.5" y="-902.8" font-family="Helvetica,sans-Serif" font-size="14.00" fill="#555555">int</text>
<polygon fill="#ffffff" stroke="transparent" points="1012.5,-892 1012.5,-921 1188.5,-921 1188.5,-892 1012.5,-892"/>
<polygon fill="none" stroke="black" points="1012.5,-892 1012.5,-921 1188.5,-921 1188.5,-892 1012.5,-892"/>
<text text-anchor="start" x="1019.5" y="-902.8" font-family="Helvetica,sans-Serif" font-size="14.00">account_key</text>
<polygon fill="#ffffff" stroke="transparent" points="1188.5,-892 1188.5,-921 1224.5,-921 1224.5,-892 1188.5,-892"/>
<polygon fill="none" stroke="black" points="1188.5,-892 1188.5,-921 1224.5,-921 1224.5,-892 1188.5,-892"/>
<text text-anchor="start" x="1195.5" y="-903.8" font-family="Helvetica,sans-Serif" font-weight="bold" font-size="14.00">PK</text>
<polygon fill="#ffffff" stroke="transparent" points="957.5,-863 957.5,-892 1012.5,-892 1012.5,-863 957.5,-863"/>
<polygon fill="none" stroke="black" points="957.5,-863 957.5,-892 1012.5,-892 1012.5,-863 957.5,-863"/>
<text text-anchor="start" x="964.5" y="-873.8" font-family="Helvetica,sans-Serif" font-size="14.00" fill="#555555">string</text>
<polygon fill="#ffffff" stroke="transparent" points="1012.5,-863 1012.5,-892 1188.5,-892 1188.5,-863 1012.5,-863"/>
<polygon fill="none" stroke="black" points="1012.5,-863 1012.5,-892 1188.5,-892 1188.5,-863 1012.5,-863"/>
<text text-anchor="start" x="1019.5" y="-873.8" font-family="Helvetica,sans-Serif" font-size="14.00">ACCOUNT_NO</text>
<polygon fill="#ffffff" stroke="transparent" points="1188.5,-863 1188.5,-892 1224.5,-892 1224.5,-863 1188.5,-863"/>
<polygon fill="none" stroke="black" points="1188.5,-863 1188.5,-892 1224.5,-892 1224.5,-863 1188.5,-863"/>
<polygon fill="#ffffff" stroke="transparent" points="957.5,-834 957.5,-863 1012.5,-863 1012.5,-834 957.5,-834"/>
<polygon fill="none" stroke="black" points="957.5,-834 957.5,-863 1012.5,-863 1012.5,-834 957.5,-834"/>
<text text-anchor="start" x="964.5" y="-844.8" font-family="Helvetica,sans-Serif" font-size="14.00" fill="#555555">string</text>
<polygon fill="#ffffff" stroke="transparent" points="1012.5,-834 1012.5,-863 1188.5,-863 1188.5,-834 1012.5,-834"/>
<polygon fill="none" stroke="black" points="1012.5,-834 1012.5,-863 1188.5,-863 1188.5,-834 1012.5,-834"/>
<text text-anchor="start" x="1019.5" y="-844.8" font-family="Helvetica,sans-Serif" font-size="14.00">ACCOUNT_STATUS</text>
<polygon fill="#ffffff" stroke="transparent" points="1188.5,-834 1188.5,-863 1224.5,-863 1224.5,-834 1188.5,-834"/>
<polygon fill="none" stroke="black" points="1188.5,-834 1188.5,-863 1224.5,-863 1224.5,-834 1188.5,-834"/>
<polygon fill="#ffffff" stroke="transparent" points="957.5,-805 957.5,-834 1012.5,-834 1012.5,-805 957.5,-805"/>
<polygon fill="none" stroke="black" points="957.5,-805 957.5,-834 1012.5,-834 1012.5,-805 957.5,-805"/>
<text text-anchor="start" x="964.5" y="-815.8" font-family="Helvetica,sans-Serif" font-size="14.00" fill="#555555">string</text>
<polygon fill="#ffffff" stroke="transparent" points="1012.5,-805 1012.5,-834 1188.5,-834 1188.5,-805 1012.5,-805"/>
<polygon fill="none" stroke="black" points="1012.5,-805 1012.5,-834 1188.5,-834 1188.5,-805 1012.5,-805"/>
<text text-anchor="start" x="1019.5" y="-815.8" font-family="Helvetica,sans-Serif" font-size="14.00">ACCOUNT_CATEGORY</text>
<polygon fill="#ffffff" stroke="transparent" points="1188.5,-805 1188.5,-834 1224.5,-834 1224.5,-805 1188.5,-805"/>
<polygon fill="none" stroke="black" points="1188.5,-805 1188.5,-834 1224.5,-834 1224.5,-805 1188.5,-805"/>
<polygon fill="#ffffff" stroke="transparent" points="957.5,-776 957.5,-805 1012.5,-805 1012.5,-776 957.5,-776"/>
<polygon fill="none" stroke="black" points="957.5,-776 957.5,-805 1012.5,-805 1012.5,-776 957.5,-776"/>
<text text-anchor="start" x="964.5" y="-786.8" font-family="Helvetica,sans-Serif" font-size="14.00" fill="#555555">string</text>
<polygon fill="#ffffff" stroke="transparent" points="1012.5,-776 1012.5,-805 1188.5,-805 1188.5,-776 1012.5,-776"/>
<polygon fill="none" stroke="black" points="1012.5,-776 1012.5,-805 1188.5,-805 1188.5,-776 1012.5,-776"/>
<text text-anchor="start" x="1019.5" y="-786.8" font-family="Helvetica,sans-Serif" font-size="14.00">ACCOUNT_TYPE_DESC</text>
<polygon fill="#ffffff" stroke="transparent" points="1188.5,-776 1188.5,-805 1224.5,-805 1224.5,-776 1188.5,-776"/>
<polygon fill="none" stroke="black" points="1188.5,-776 1188.5,-805 1224.5,-805 1224.5,-776 1188.5,-776"/>
<polygon fill="#ffffff" stroke="transparent" points="957.5,-747 957.5,-776 1012.5,-776 1012.5,-747 957.5,-747"/>
<polygon fill="none" stroke="black" points="957.5,-747 957.5,-776 1012.5,-776 1012.5,-747 957.5,-747"/>
<text text-anchor="start" x="964.5" y="-757.8" font-family="Helvetica,sans-Serif" font-size="14.00" fill="#555555">string</text>
<polygon fill="#ffffff" stroke="transparent" points="1012.5,-747 1012.5,-776 1188.5,-776 1188.5,-747 1012.5,-747"/>
<polygon fill="none" stroke="black" points="1012.5,-747 1012.5,-776 1188.5,-776 1188.5,-747 1012.5,-747"/>
<text text-anchor="start" x="1019.5" y="-757.8" font-family="Helvetica,sans-Serif" font-size="14.00">CURRENCY</text>
<polygon fill="#ffffff" stroke="transparent" points="1188.5,-747 1188.5,-776 1224.5,-776 1224.5,-747 1188.5,-747"/>
<polygon fill="none" stroke="black" points="1188.5,-747 1188.5,-776 1224.5,-776 1224.5,-747 1188.5,-747"/>
<polygon fill="#ffffff" stroke="transparent" points="957.5,-718 957.5,-747 1012.5,-747 1012.5,-718 957.5,-718"/>
<polygon fill="none" stroke="black" points="957.5,-718 957.5,-747 1012.5,-747 1012.5,-718 957.5,-718"/>
<text text-anchor="start" x="964.5" y="-728.8" font-family="Helvetica,sans-Serif" font-size="14.00" fill="#555555">date</text>
<polygon fill="#ffffff" stroke="transparent" points="1012.5,-718 1012.5,-747 1188.5,-747 1188.5,-718 1012.5,-718"/>
<polygon fill="none" stroke="black" points="1012.5,-718 1012.5,-747 1188.5,-747 1188.5,-718 1012.5,-718"/>
<text text-anchor="start" x="1019.5" y="-728.8" font-family="Helvetica,sans-Serif" font-size="14.00">ACCT_OPENING_DATE</text>
<polygon fill="#ffffff" stroke="transparent" points="1188.5,-718 1188.5,-747 1224.5,-747 1224.5,-718 1188.5,-718"/>
<polygon fill="none" stroke="black" points="1188.5,-718 1188.5,-747 1224.5,-747 1224.5,-718 1188.5,-718"/>
<polygon fill="#ffffff" stroke="transparent" points="957.5,-689 957.5,-718 1012.5,-718 1012.5,-689 957.5,-689"/>
<polygon fill="none" stroke="black" points="957.5,-689 957.5,-718 1012.5,-718 1012.5,-689 957.5,-689"/>
<text text-anchor="start" x="964.5" y="-699.8" font-family="Helvetica,sans-Serif" font-size="14.00" fill="#555555">date</text>
<polygon fill="#ffffff" stroke="transparent" points="1012.5,-689 1012.5,-718 1188.5,-718 1188.5,-689 1012.5,-689"/>
<polygon fill="none" stroke="black" points="1012.5,-689 1012.5,-718 1188.5,-718 1188.5,-689 1012.5,-689"/>
<text text-anchor="start" x="1019.5" y="-699.8" font-family="Helvetica,sans-Serif" font-size="14.00">ACCT_CLOSE_DATE</text>
<polygon fill="#ffffff" stroke="transparent" points="1188.5,-689 1188.5,-718 1224.5,-718 1224.5,-689 1188.5,-689"/>
<polygon fill="none" stroke="black" points="1188.5,-689 1188.5,-718 1224.5,-718 1224.5,-689 1188.5,-689"/>
<polygon fill="#ffffff" stroke="transparent" points="957.5,-660 957.5,-689 1012.5,-689 1012.5,-660 957.5,-660"/>
<polygon fill="none" stroke="black" points="957.5,-660 957.5,-689 1012.5,-689 1012.5,-660 957.5,-660"/>
<text text-anchor="start" x="964.5" y="-670.8" font-family="Helvetica,sans-Serif" font-size="14.00" fill="#555555">int</text>
<polygon fill="#ffffff" stroke="transparent" points="1012.5,-660 1012.5,-689 1188.5,-689 1188.5,-660 1012.5,-660"/>
<polygon fill="none" stroke="black" points="1012.5,-660 1012.5,-689 1188.5,-689 1188.5,-660 1012.5,-660"/>
<text text-anchor="start" x="1019.5" y="-670.8" font-family="Helvetica,sans-Serif" font-size="14.00">acct_tenure_days</text>
<polygon fill="#ffffff" stroke="transparent" points="1188.5,-660 1188.5,-689 1224.5,-689 1224.5,-660 1188.5,-660"/>
<polygon fill="none" stroke="black" points="1188.5,-660 1188.5,-689 1224.5,-689 1224.5,-660 1188.5,-660"/>
<polygon fill="#ffffff" stroke="transparent" points="957.5,-631 957.5,-660 1012.5,-660 1012.5,-631 957.5,-631"/>
<polygon fill="none" stroke="black" points="957.5,-631 957.5,-660 1012.5,-660 1012.5,-631 957.5,-631"/>
<text text-anchor="start" x="964.5" y="-641.8" font-family="Helvetica,sans-Serif" font-size="14.00" fill="#555555">int</text>
<polygon fill="#ffffff" stroke="transparent" points="1012.5,-631 1012.5,-660 1188.5,-660 1188.5,-631 1012.5,-631"/>
<polygon fill="none" stroke="black" points="1012.5,-631 1012.5,-660 1188.5,-660 1188.5,-631 1012.5,-631"/>
<text text-anchor="start" x="1019.5" y="-641.8" font-family="Helvetica,sans-Serif" font-size="14.00">nb_accounts_per_client</text>
<polygon fill="#ffffff" stroke="transparent" points="1188.5,-631 1188.5,-660 1224.5,-660 1224.5,-631 1188.5,-631"/>
<polygon fill="none" stroke="black" points="1188.5,-631 1188.5,-660 1224.5,-660 1224.5,-631 1188.5,-631"/>
<polygon fill="#ffffff" stroke="transparent" points="957.5,-602 957.5,-631 1012.5,-631 1012.5,-602 957.5,-602"/>
<polygon fill="none" stroke="black" points="957.5,-602 957.5,-631 1012.5,-631 1012.5,-602 957.5,-602"/>
<text text-anchor="start" x="964.5" y="-612.8" font-family="Helvetica,sans-Serif" font-size="14.00" fill="#555555">date</text>
<polygon fill="#ffffff" stroke="transparent" points="1012.5,-602 1012.5,-631 1188.5,-631 1188.5,-602 1012.5,-602"/>
<polygon fill="none" stroke="black" points="1012.5,-602 1012.5,-631 1188.5,-631 1188.5,-602 1012.5,-602"/>
<text text-anchor="start" x="1019.5" y="-612.8" font-family="Helvetica,sans-Serif" font-size="14.00">NEXT__REVIEW_DATE</text>
<polygon fill="#ffffff" stroke="transparent" points="1188.5,-602 1188.5,-631 1224.5,-631 1224.5,-602 1188.5,-602"/>
<polygon fill="none" stroke="black" points="1188.5,-602 1188.5,-631 1224.5,-631 1224.5,-602 1188.5,-602"/>
<polygon fill="none" stroke="black" points="956,-601 956,-951 1225,-951 1225,-601 956,-601"/>
</g>
<!-- DIM_ACCOUNT&#45;&gt;FACT_ACCOUNT_EVENT -->
<g id="edge4" class="edge">
<title>DIM_ACCOUNT:s&#45;&gt;FACT_ACCOUNT_EVENT:n</title>
<path fill="none" stroke="#555555" stroke-width="1.1" d="M1100.47,-885.84C1098.24,-657.34 948,-618.41 943.6,-392.69"/>
<polygon fill="#555555" stroke="#555555" stroke-width="1.1" points="1105.5,-889.98 1095.5,-890.02 1095.49,-888.02 1105.49,-887.98 1105.5,-889.98"/>
<polyline fill="none" stroke="#555555" stroke-width="1.1" points="1100.5,-891 1100.48,-886 "/>
<polygon fill="#555555" stroke="#555555" stroke-width="1.1" points="943.6,-392.5 948,-382.46 943.55,-387.5 943.5,-382.5 943.5,-382.5 943.5,-382.5 943.55,-387.5 939,-382.54 943.6,-392.5 943.6,-392.5"/>
<text text-anchor="middle" x="1100.35" y="-858.8" font-family="Helvetica,sans-Serif" font-size="9.00">account_key</text>
</g>
<!-- DIM_PRODUCT -->
<g id="node5" class="node">
<title>DIM_PRODUCT</title>
<polygon fill="#cdb8f0" stroke="transparent" points="1307.5,-906 1307.5,-935 1540.5,-935 1540.5,-906 1307.5,-906"/>
<polygon fill="none" stroke="black" points="1307.5,-906 1307.5,-935 1540.5,-935 1540.5,-906 1307.5,-906"/>
<text text-anchor="start" x="1367" y="-917.8" font-family="Helvetica,sans-Serif" font-weight="bold" font-size="14.00">DIM_PRODUCT</text>
<polygon fill="#ffffff" stroke="transparent" points="1307.5,-877 1307.5,-906 1362.5,-906 1362.5,-877 1307.5,-877"/>
<polygon fill="none" stroke="black" points="1307.5,-877 1307.5,-906 1362.5,-906 1362.5,-877 1307.5,-877"/>
<text text-anchor="start" x="1314.5" y="-887.8" font-family="Helvetica,sans-Serif" font-size="14.00" fill="#555555">int</text>
<polygon fill="#ffffff" stroke="transparent" points="1362.5,-877 1362.5,-906 1504.5,-906 1504.5,-877 1362.5,-877"/>
<polygon fill="none" stroke="black" points="1362.5,-877 1362.5,-906 1504.5,-906 1504.5,-877 1362.5,-877"/>
<text text-anchor="start" x="1369.5" y="-887.8" font-family="Helvetica,sans-Serif" font-size="14.00">product_key</text>
<polygon fill="#ffffff" stroke="transparent" points="1504.5,-877 1504.5,-906 1540.5,-906 1540.5,-877 1504.5,-877"/>
<polygon fill="none" stroke="black" points="1504.5,-877 1504.5,-906 1540.5,-906 1540.5,-877 1504.5,-877"/>
<text text-anchor="start" x="1511.5" y="-888.8" font-family="Helvetica,sans-Serif" font-weight="bold" font-size="14.00">PK</text>
<polygon fill="#ffffff" stroke="transparent" points="1307.5,-848 1307.5,-877 1362.5,-877 1362.5,-848 1307.5,-848"/>
<polygon fill="none" stroke="black" points="1307.5,-848 1307.5,-877 1362.5,-877 1362.5,-848 1307.5,-848"/>
<text text-anchor="start" x="1314.5" y="-858.8" font-family="Helvetica,sans-Serif" font-size="14.00" fill="#555555">string</text>
<polygon fill="#ffffff" stroke="transparent" points="1362.5,-848 1362.5,-877 1504.5,-877 1504.5,-848 1362.5,-848"/>
<polygon fill="none" stroke="black" points="1362.5,-848 1362.5,-877 1504.5,-877 1504.5,-848 1362.5,-848"/>
<text text-anchor="start" x="1369.5" y="-858.8" font-family="Helvetica,sans-Serif" font-size="14.00">PRODUCT_GROUP</text>
<polygon fill="#ffffff" stroke="transparent" points="1504.5,-848 1504.5,-877 1540.5,-877 1540.5,-848 1504.5,-848"/>
<polygon fill="none" stroke="black" points="1504.5,-848 1504.5,-877 1540.5,-877 1540.5,-848 1504.5,-848"/>
<polygon fill="#ffffff" stroke="transparent" points="1307.5,-819 1307.5,-848 1362.5,-848 1362.5,-819 1307.5,-819"/>
<polygon fill="none" stroke="black" points="1307.5,-819 1307.5,-848 1362.5,-848 1362.5,-819 1307.5,-819"/>
<text text-anchor="start" x="1314.5" y="-829.8" font-family="Helvetica,sans-Serif" font-size="14.00" fill="#555555">string</text>
<polygon fill="#ffffff" stroke="transparent" points="1362.5,-819 1362.5,-848 1504.5,-848 1504.5,-819 1362.5,-819"/>
<polygon fill="none" stroke="black" points="1362.5,-819 1362.5,-848 1504.5,-848 1504.5,-819 1362.5,-819"/>
<text text-anchor="start" x="1369.5" y="-829.8" font-family="Helvetica,sans-Serif" font-size="14.00">PRODUCT_LINE</text>
<polygon fill="#ffffff" stroke="transparent" points="1504.5,-819 1504.5,-848 1540.5,-848 1540.5,-819 1504.5,-819"/>
<polygon fill="none" stroke="black" points="1504.5,-819 1504.5,-848 1540.5,-848 1540.5,-819 1504.5,-819"/>
<polygon fill="#ffffff" stroke="transparent" points="1307.5,-790 1307.5,-819 1362.5,-819 1362.5,-790 1307.5,-790"/>
<polygon fill="none" stroke="black" points="1307.5,-790 1307.5,-819 1362.5,-819 1362.5,-790 1307.5,-790"/>
<text text-anchor="start" x="1314.5" y="-800.8" font-family="Helvetica,sans-Serif" font-size="14.00" fill="#555555">string</text>
<polygon fill="#ffffff" stroke="transparent" points="1362.5,-790 1362.5,-819 1504.5,-819 1504.5,-790 1362.5,-790"/>
<polygon fill="none" stroke="black" points="1362.5,-790 1362.5,-819 1504.5,-819 1504.5,-790 1362.5,-790"/>
<text text-anchor="start" x="1369.5" y="-800.8" font-family="Helvetica,sans-Serif" font-size="14.00">PRODUCT</text>
<polygon fill="#ffffff" stroke="transparent" points="1504.5,-790 1504.5,-819 1540.5,-819 1540.5,-790 1504.5,-790"/>
<polygon fill="none" stroke="black" points="1504.5,-790 1504.5,-819 1540.5,-819 1540.5,-790 1504.5,-790"/>
<polygon fill="#ffffff" stroke="transparent" points="1307.5,-761 1307.5,-790 1362.5,-790 1362.5,-761 1307.5,-761"/>
<polygon fill="none" stroke="black" points="1307.5,-761 1307.5,-790 1362.5,-790 1362.5,-761 1307.5,-761"/>
<text text-anchor="start" x="1314.5" y="-771.8" font-family="Helvetica,sans-Serif" font-size="14.00" fill="#555555">string</text>
<polygon fill="#ffffff" stroke="transparent" points="1362.5,-761 1362.5,-790 1504.5,-790 1504.5,-761 1362.5,-761"/>
<polygon fill="none" stroke="black" points="1362.5,-761 1362.5,-790 1504.5,-790 1504.5,-761 1362.5,-761"/>
<text text-anchor="start" x="1369.5" y="-771.8" font-family="Helvetica,sans-Serif" font-size="14.00">ACCOUNTNATURE</text>
<polygon fill="#ffffff" stroke="transparent" points="1504.5,-761 1504.5,-790 1540.5,-790 1540.5,-761 1504.5,-761"/>
<polygon fill="none" stroke="black" points="1504.5,-761 1504.5,-790 1540.5,-790 1540.5,-761 1504.5,-761"/>
<polygon fill="#ffffff" stroke="transparent" points="1307.5,-732 1307.5,-761 1362.5,-761 1362.5,-732 1307.5,-732"/>
<polygon fill="none" stroke="black" points="1307.5,-732 1307.5,-761 1362.5,-761 1362.5,-732 1307.5,-732"/>
<text text-anchor="start" x="1314.5" y="-742.8" font-family="Helvetica,sans-Serif" font-size="14.00" fill="#555555">float</text>
<polygon fill="#ffffff" stroke="transparent" points="1362.5,-732 1362.5,-761 1504.5,-761 1504.5,-732 1362.5,-732"/>
<polygon fill="none" stroke="black" points="1362.5,-732 1362.5,-761 1504.5,-761 1504.5,-732 1362.5,-732"/>
<text text-anchor="start" x="1369.5" y="-742.8" font-family="Helvetica,sans-Serif" font-size="14.00">FIXEDRATE</text>
<polygon fill="#ffffff" stroke="transparent" points="1504.5,-732 1504.5,-761 1540.5,-761 1540.5,-732 1504.5,-732"/>
<polygon fill="none" stroke="black" points="1504.5,-732 1504.5,-761 1540.5,-761 1540.5,-732 1504.5,-732"/>
<polygon fill="#ffffff" stroke="transparent" points="1307.5,-703 1307.5,-732 1362.5,-732 1362.5,-703 1307.5,-703"/>
<polygon fill="none" stroke="black" points="1307.5,-703 1307.5,-732 1362.5,-732 1362.5,-703 1307.5,-703"/>
<text text-anchor="start" x="1314.5" y="-713.8" font-family="Helvetica,sans-Serif" font-size="14.00" fill="#555555">date</text>
<polygon fill="#ffffff" stroke="transparent" points="1362.5,-703 1362.5,-732 1504.5,-732 1504.5,-703 1362.5,-703"/>
<polygon fill="none" stroke="black" points="1362.5,-703 1362.5,-732 1504.5,-732 1504.5,-703 1362.5,-703"/>
<text text-anchor="start" x="1369.5" y="-713.8" font-family="Helvetica,sans-Serif" font-size="14.00">STARTDATE</text>
<polygon fill="#ffffff" stroke="transparent" points="1504.5,-703 1504.5,-732 1540.5,-732 1540.5,-703 1504.5,-703"/>
<polygon fill="none" stroke="black" points="1504.5,-703 1504.5,-732 1540.5,-732 1540.5,-703 1504.5,-703"/>
<polygon fill="#ffffff" stroke="transparent" points="1307.5,-674 1307.5,-703 1362.5,-703 1362.5,-674 1307.5,-674"/>
<polygon fill="none" stroke="black" points="1307.5,-674 1307.5,-703 1362.5,-703 1362.5,-674 1307.5,-674"/>
<text text-anchor="start" x="1314.5" y="-684.8" font-family="Helvetica,sans-Serif" font-size="14.00" fill="#555555">date</text>
<polygon fill="#ffffff" stroke="transparent" points="1362.5,-674 1362.5,-703 1504.5,-703 1504.5,-674 1362.5,-674"/>
<polygon fill="none" stroke="black" points="1362.5,-674 1362.5,-703 1504.5,-703 1504.5,-674 1362.5,-674"/>
<text text-anchor="start" x="1369.5" y="-684.8" font-family="Helvetica,sans-Serif" font-size="14.00">MATURITYDATE</text>
<polygon fill="#ffffff" stroke="transparent" points="1504.5,-674 1504.5,-703 1540.5,-703 1540.5,-674 1504.5,-674"/>
<polygon fill="none" stroke="black" points="1504.5,-674 1504.5,-703 1540.5,-703 1540.5,-674 1504.5,-674"/>
<polygon fill="#ffffff" stroke="transparent" points="1307.5,-645 1307.5,-674 1362.5,-674 1362.5,-645 1307.5,-645"/>
<polygon fill="none" stroke="black" points="1307.5,-645 1307.5,-674 1362.5,-674 1362.5,-645 1307.5,-645"/>
<text text-anchor="start" x="1314.5" y="-655.8" font-family="Helvetica,sans-Serif" font-size="14.00" fill="#555555">string</text>
<polygon fill="#ffffff" stroke="transparent" points="1362.5,-645 1362.5,-674 1504.5,-674 1504.5,-645 1362.5,-645"/>
<polygon fill="none" stroke="black" points="1362.5,-645 1362.5,-674 1504.5,-674 1504.5,-645 1362.5,-645"/>
<text text-anchor="start" x="1369.5" y="-655.8" font-family="Helvetica,sans-Serif" font-size="14.00">PRODUCT_STATUS</text>
<polygon fill="#ffffff" stroke="transparent" points="1504.5,-645 1504.5,-674 1540.5,-674 1540.5,-645 1504.5,-645"/>
<polygon fill="none" stroke="black" points="1504.5,-645 1504.5,-674 1540.5,-674 1540.5,-645 1504.5,-645"/>
<polygon fill="#ffffff" stroke="transparent" points="1307.5,-616 1307.5,-645 1362.5,-645 1362.5,-616 1307.5,-616"/>
<polygon fill="none" stroke="black" points="1307.5,-616 1307.5,-645 1362.5,-645 1362.5,-616 1307.5,-616"/>
<text text-anchor="start" x="1314.5" y="-626.8" font-family="Helvetica,sans-Serif" font-size="14.00" fill="#555555">float</text>
<polygon fill="#ffffff" stroke="transparent" points="1362.5,-616 1362.5,-645 1504.5,-645 1504.5,-616 1362.5,-616"/>
<polygon fill="none" stroke="black" points="1362.5,-616 1362.5,-645 1504.5,-645 1504.5,-616 1362.5,-616"/>
<text text-anchor="start" x="1369.5" y="-626.8" font-family="Helvetica,sans-Serif" font-size="14.00">AMOUNT</text>
<polygon fill="#ffffff" stroke="transparent" points="1504.5,-616 1504.5,-645 1540.5,-645 1540.5,-616 1504.5,-616"/>
<polygon fill="none" stroke="black" points="1504.5,-616 1504.5,-645 1540.5,-645 1540.5,-616 1504.5,-616"/>
<polygon fill="none" stroke="black" points="1306,-615.5 1306,-936.5 1541,-936.5 1541,-615.5 1306,-615.5"/>
</g>
<!-- DIM_PRODUCT&#45;&gt;FACT_ACCOUNT_EVENT -->
<g id="edge5" class="edge">
<title>DIM_PRODUCT:s&#45;&gt;FACT_ACCOUNT_EVENT:n</title>
<path fill="none" stroke="#555555" stroke-width="1.1" d="M1433.48,-870.65C1432.35,-707.61 1378.99,-659.54 1265.5,-539 1154.71,-421.34 952.43,-514.47 943.79,-363.78"/>
<polygon fill="#555555" stroke="#555555" stroke-width="1.1" points="1438.5,-874.98 1428.5,-875.02 1428.49,-873.02 1438.49,-872.98 1438.5,-874.98"/>
<polyline fill="none" stroke="#555555" stroke-width="1.1" points="1433.5,-876 1433.48,-871 "/>
<polygon fill="#555555" stroke="#555555" stroke-width="1.1" points="943.78,-363.5 948,-353.37 943.64,-358.5 943.5,-353.5 943.5,-353.5 943.5,-353.5 943.64,-358.5 939,-353.63 943.78,-363.5 943.78,-363.5"/>
<text text-anchor="middle" x="1433.4" y="-843.8" font-family="Helvetica,sans-Serif" font-size="9.00">product_key</text>
</g>
<!-- DIM_CLOSURE -->
<g id="node6" class="node">
<title>DIM_CLOSURE</title>
<polygon fill="#ffaeae" stroke="transparent" points="1623.5,-848 1623.5,-877 1875.5,-877 1875.5,-848 1623.5,-848"/>
<polygon fill="none" stroke="black" points="1623.5,-848 1623.5,-877 1875.5,-877 1875.5,-848 1623.5,-848"/>
<text text-anchor="start" x="1694.5" y="-859.8" font-family="Helvetica,sans-Serif" font-weight="bold" font-size="14.00">DIM_CLOSURE</text>
<polygon fill="#ffffff" stroke="transparent" points="1623.5,-819 1623.5,-848 1692.5,-848 1692.5,-819 1623.5,-819"/>
<polygon fill="none" stroke="black" points="1623.5,-819 1623.5,-848 1692.5,-848 1692.5,-819 1623.5,-819"/>
<text text-anchor="start" x="1630.5" y="-829.8" font-family="Helvetica,sans-Serif" font-size="14.00" fill="#555555">int</text>
<polygon fill="#ffffff" stroke="transparent" points="1692.5,-819 1692.5,-848 1839.5,-848 1839.5,-819 1692.5,-819"/>
<polygon fill="none" stroke="black" points="1692.5,-819 1692.5,-848 1839.5,-848 1839.5,-819 1692.5,-819"/>
<text text-anchor="start" x="1699.5" y="-829.8" font-family="Helvetica,sans-Serif" font-size="14.00">closure_key</text>
<polygon fill="#ffffff" stroke="transparent" points="1839.5,-819 1839.5,-848 1875.5,-848 1875.5,-819 1839.5,-819"/>
<polygon fill="none" stroke="black" points="1839.5,-819 1839.5,-848 1875.5,-848 1875.5,-819 1839.5,-819"/>
<text text-anchor="start" x="1846.5" y="-830.8" font-family="Helvetica,sans-Serif" font-weight="bold" font-size="14.00">PK</text>
<polygon fill="#ffffff" stroke="transparent" points="1623.5,-790 1623.5,-819 1692.5,-819 1692.5,-790 1623.5,-790"/>
<polygon fill="none" stroke="black" points="1623.5,-790 1623.5,-819 1692.5,-819 1692.5,-790 1623.5,-790"/>
<text text-anchor="start" x="1630.5" y="-800.8" font-family="Helvetica,sans-Serif" font-size="14.00" fill="#555555">string</text>
<polygon fill="#ffffff" stroke="transparent" points="1692.5,-790 1692.5,-819 1839.5,-819 1839.5,-790 1692.5,-790"/>
<polygon fill="none" stroke="black" points="1692.5,-790 1692.5,-819 1839.5,-819 1839.5,-790 1692.5,-790"/>
<text text-anchor="start" x="1699.5" y="-800.8" font-family="Helvetica,sans-Serif" font-size="14.00">CLOSURE_REASON</text>
<polygon fill="#ffffff" stroke="transparent" points="1839.5,-790 1839.5,-819 1875.5,-819 1875.5,-790 1839.5,-790"/>
<polygon fill="none" stroke="black" points="1839.5,-790 1839.5,-819 1875.5,-819 1875.5,-790 1839.5,-790"/>
<polygon fill="#ffffff" stroke="transparent" points="1623.5,-761 1623.5,-790 1692.5,-790 1692.5,-761 1623.5,-761"/>
<polygon fill="none" stroke="black" points="1623.5,-761 1623.5,-790 1692.5,-790 1692.5,-761 1623.5,-761"/>
<text text-anchor="start" x="1630.5" y="-771.8" font-family="Helvetica,sans-Serif" font-size="14.00" fill="#555555">string</text>
<polygon fill="#ffffff" stroke="transparent" points="1692.5,-761 1692.5,-790 1839.5,-790 1839.5,-761 1692.5,-761"/>
<polygon fill="none" stroke="black" points="1692.5,-761 1692.5,-790 1839.5,-790 1839.5,-761 1692.5,-761"/>
<text text-anchor="start" x="1699.5" y="-771.8" font-family="Helvetica,sans-Serif" font-size="14.00">closure_label</text>
<polygon fill="#ffffff" stroke="transparent" points="1839.5,-761 1839.5,-790 1875.5,-790 1875.5,-761 1839.5,-761"/>
<polygon fill="none" stroke="black" points="1839.5,-761 1839.5,-790 1875.5,-790 1875.5,-761 1839.5,-761"/>
<polygon fill="#ffffff" stroke="transparent" points="1623.5,-732 1623.5,-761 1692.5,-761 1692.5,-732 1623.5,-732"/>
<polygon fill="none" stroke="black" points="1623.5,-732 1623.5,-761 1692.5,-761 1692.5,-732 1623.5,-732"/>
<text text-anchor="start" x="1630.5" y="-742.8" font-family="Helvetica,sans-Serif" font-size="14.00" fill="#555555">string</text>
<polygon fill="#ffffff" stroke="transparent" points="1692.5,-732 1692.5,-761 1839.5,-761 1839.5,-732 1692.5,-732"/>
<polygon fill="none" stroke="black" points="1692.5,-732 1692.5,-761 1839.5,-761 1839.5,-732 1692.5,-732"/>
<text text-anchor="start" x="1699.5" y="-742.8" font-family="Helvetica,sans-Serif" font-size="14.00">closure_category</text>
<polygon fill="#ffffff" stroke="transparent" points="1839.5,-732 1839.5,-761 1875.5,-761 1875.5,-732 1839.5,-732"/>
<polygon fill="none" stroke="black" points="1839.5,-732 1839.5,-761 1875.5,-761 1875.5,-732 1839.5,-732"/>
<polygon fill="#ffffff" stroke="transparent" points="1623.5,-703 1623.5,-732 1692.5,-732 1692.5,-703 1623.5,-703"/>
<polygon fill="none" stroke="black" points="1623.5,-703 1623.5,-732 1692.5,-732 1692.5,-703 1623.5,-703"/>
<text text-anchor="start" x="1630.5" y="-713.8" font-family="Helvetica,sans-Serif" font-size="14.00" fill="#555555">boolean</text>
<polygon fill="#ffffff" stroke="transparent" points="1692.5,-703 1692.5,-732 1839.5,-732 1839.5,-703 1692.5,-703"/>
<polygon fill="none" stroke="black" points="1692.5,-703 1692.5,-732 1839.5,-732 1839.5,-703 1692.5,-703"/>
<text text-anchor="start" x="1699.5" y="-713.8" font-family="Helvetica,sans-Serif" font-size="14.00">is_voluntary</text>
<polygon fill="#ffffff" stroke="transparent" points="1839.5,-703 1839.5,-732 1875.5,-732 1875.5,-703 1839.5,-703"/>
<polygon fill="none" stroke="black" points="1839.5,-703 1839.5,-732 1875.5,-732 1875.5,-703 1839.5,-703"/>
<polygon fill="#ffffff" stroke="transparent" points="1623.5,-674 1623.5,-703 1692.5,-703 1692.5,-674 1623.5,-674"/>
<polygon fill="none" stroke="black" points="1623.5,-674 1623.5,-703 1692.5,-703 1692.5,-674 1623.5,-674"/>
<text text-anchor="start" x="1630.5" y="-684.8" font-family="Helvetica,sans-Serif" font-size="14.00" fill="#555555">string</text>
<polygon fill="#ffffff" stroke="transparent" points="1692.5,-674 1692.5,-703 1839.5,-703 1839.5,-674 1692.5,-674"/>
<polygon fill="none" stroke="black" points="1692.5,-674 1692.5,-703 1839.5,-703 1839.5,-674 1692.5,-674"/>
<text text-anchor="start" x="1699.5" y="-684.8" font-family="Helvetica,sans-Serif" font-size="14.00">churn_type</text>
<polygon fill="#ffffff" stroke="transparent" points="1839.5,-674 1839.5,-703 1875.5,-703 1875.5,-674 1839.5,-674"/>
<polygon fill="none" stroke="black" points="1839.5,-674 1839.5,-703 1875.5,-703 1875.5,-674 1839.5,-674"/>
<polygon fill="none" stroke="black" points="1622.5,-673.5 1622.5,-878.5 1876.5,-878.5 1876.5,-673.5 1622.5,-673.5"/>
</g>
<!-- DIM_CLOSURE&#45;&gt;FACT_ACCOUNT_EVENT -->
<g id="edge6" class="edge">
<title>DIM_CLOSURE:s&#45;&gt;FACT_ACCOUNT_EVENT:n</title>
<path fill="none" stroke="#555555" stroke-width="1.1" d="M1766.47,-812.82C1764.84,-668.39 1694.48,-633.1 1581.5,-539 1347.24,-343.89 952.49,-569.65 943.65,-276.68"/>
<polygon fill="#555555" stroke="#555555" stroke-width="1.1" points="1771.49,-816.97 1761.49,-817.03 1761.48,-815.03 1771.48,-814.97 1771.49,-816.97"/>
<polyline fill="none" stroke="#555555" stroke-width="1.1" points="1766.5,-818 1766.47,-813 "/>
<polygon fill="#555555" stroke="#555555" stroke-width="1.1" points="943.65,-276.5 948,-266.43 943.57,-271.5 943.5,-266.5 943.5,-266.5 943.5,-266.5 943.57,-271.5 939,-266.57 943.65,-276.5 943.65,-276.5"/>
<text text-anchor="middle" x="1766.33" y="-785.8" font-family="Helvetica,sans-Serif" font-size="9.00">closure_key</text>
</g>
</g>
</svg>
